<?xml version="1.0" encoding="UTF-8" standalone="no"?>
<!-- Created with Inkscape (http://www.inkscape.org/) -->

<svg
   xmlns:dc="http://purl.org/dc/elements/1.1/"
   xmlns:cc="http://creativecommons.org/ns#"
   xmlns:rdf="http://www.w3.org/1999/02/22-rdf-syntax-ns#"
   xmlns:svg="http://www.w3.org/2000/svg"
   xmlns="http://www.w3.org/2000/svg"
   xmlns:sodipodi="http://sodipodi.sourceforge.net/DTD/sodipodi-0.dtd"
   xmlns:inkscape="http://www.inkscape.org/namespaces/inkscape"
   width="624px"
   height="624px"
   viewBox="0 0 624 624"
   version="1.1"
   id="SVGRoot"
   inkscape:version="0.92.3 (2405546, 2018-03-11)"
   sodipodi:docname="hosana.svg">
  <sodipodi:namedview
     id="base"
     pagecolor="#ffffff"
     bordercolor="#666666"
     borderopacity="1.0"
     inkscape:pageopacity="0.0"
     inkscape:pageshadow="2"
     inkscape:zoom="0.35"
     inkscape:cx="312"
     inkscape:cy="312"
     inkscape:document-units="px"
     inkscape:current-layer="layer1"
     showgrid="false"
     inkscape:window-width="1600"
     inkscape:window-height="837"
     inkscape:window-x="892"
     inkscape:window-y="395"
     inkscape:window-maximized="1" />
  <defs
     id="defs6383" />
  <metadata
     id="metadata6386">
    <rdf:RDF>
      <cc:Work
         rdf:about="">
        <dc:format>image/svg+xml</dc:format>
        <dc:type
           rdf:resource="http://purl.org/dc/dcmitype/StillImage" />
        <dc:title></dc:title>
      </cc:Work>
    </rdf:RDF>
  </metadata>
  <g
     id="layer1"
     inkscape:groupmode="layer"
     inkscape:label="Camada 1">
    <g
       id="g7430"
       transform="translate(0.57143357,-6.2857228)">
      <path
         class="fil0"
         d="m 106.97499,139.02271 106.31812,-0.0756 V 39.243156 c 66.78426,-21.12756 129.78899,-21.99685 196.27089,0 v 99.703954 h 106.31812 l -204.54805,203.452 z"
         id="path10"
         inkscape:connector-curvature="0"
         style="clip-rule:evenodd;fill:#0098da;fill-rule:evenodd;stroke-width:0.03779528;image-rendering:optimizeQuality;shape-rendering:geometricPrecision;text-rendering:geometricPrecision" />
      <path
         class="fil1"
         d="m 263.0317,263.55815 c -0.49134,-0.90708 -0.56693,-3.25039 1.02047,-4.34645 l 7.82363,-5.44252 c 2.00315,-1.43623 4.04409,-0.18898 4.72441,0.98267 l 6.3874,10.4315 c 1.13386,1.85197 0.60472,3.93071 -0.34016,4.95118 l 14.85355,4.64882 c 1.24724,0.0756 2.45669,0.45354 3.59055,1.17165 -4.95119,8.61733 -12.0189,15.08032 -21.20316,19.42678 -0.37795,-0.7937 -0.86929,-3.36378 -0.90708,-4.49764 l -5.44252,-14.13543 c -0.94488,0.37795 -3.02362,-0.0378 -3.74174,-1.36063 z"
         id="path12"
         inkscape:connector-curvature="0"
         style="clip-rule:evenodd;fill:#bdbfc1;fill-rule:evenodd;stroke-width:0.03779528;image-rendering:optimizeQuality;shape-rendering:geometricPrecision;text-rendering:geometricPrecision" />
      <circle
         class="fil2"
         cx="311.40964"
         cy="215.48253"
         r="79.332291"
         id="circle14"
         style="clip-rule:evenodd;fill:#fff212;fill-rule:evenodd;stroke-width:0.03779528;image-rendering:optimizeQuality;shape-rendering:geometricPrecision;text-rendering:geometricPrecision" />
      <path
         class="fil3"
         d="m 311.40966,6.0589057 h 0.0378 v 0.0378 c 86.21104,0 164.25829,34.9228403 220.76223,91.4267903 56.46615,56.503944 91.42679,134.551194 91.42679,220.762234 h 0.0378 v 0 0 h -0.0378 c 0,86.24883 -34.96064,164.29608 -91.42679,220.80002 -56.50394,56.46615 -134.55119,91.42679 -220.76223,91.42679 v 0 h -0.0378 v 0 0 c -86.21104,0 -164.25829,-34.96064 -220.762227,-91.46458 C 34.143493,482.58181 -0.77934714,404.53456 -0.77934714,318.32352 h -0.0378 v -0.0378 0 h 0.0378 c 0,-86.21103 34.96063014,-164.25828 91.42678014,-220.762224 C 147.15137,41.019546 225.19862,6.0967057 311.40966,6.0967057 Z m 0.0378,10.8094503 v 0.0378 h -0.0378 v 0 -0.0378 c -83.18741,0 -158.5512,33.75118 -213.089787,88.327574 C 43.743493,159.73452 9.9923029,235.09831 9.9923029,318.28572 h 0.0378 v 0 0.0378 h -0.0378 c 0.0378,83.18741 33.7511901,158.51341 88.3275701,213.08979 54.538587,54.53859 129.902377,88.28978 213.089787,88.28978 v 0 0 h 0.0378 v 0 c 83.18741,0 158.51341,-33.75119 213.08979,-88.28978 54.53859,-54.57638 88.28978,-129.90238 88.28978,-213.12758 v 0 0 0 0 c 0,-83.18741 -33.75119,-158.5512 -88.28978,-213.08979 C 469.96086,50.619536 394.63486,16.868356 311.44745,16.868356 Z"
         id="path16"
         inkscape:connector-curvature="0"
         style="clip-rule:evenodd;fill:#0098da;fill-rule:nonzero;stroke-width:0.03779528;image-rendering:optimizeQuality;shape-rendering:geometricPrecision;text-rendering:geometricPrecision" />
      <path
         class="fil0"
         d="m 34.786013,266.84634 v 146.19215 c 8.57953,12.20787 24.37795,13.75748 37.87087,13.75748 V 281.20855 c -16.0252,0.52913 -30.12284,-2.53229 -37.87087,-14.36221 z"
         id="path18"
         inkscape:connector-curvature="0"
         style="clip-rule:evenodd;fill:#0098da;fill-rule:evenodd;stroke-width:0.03779528;image-rendering:optimizeQuality;shape-rendering:geometricPrecision;text-rendering:geometricPrecision" />
      <path
         class="fil0"
         d="m 62.603333,273.34713 c -14.70236,-0.18898 -18.89764,-3.85512 -26.11654,-12.96378 6.72756,-8.69292 11.71654,-12.09449 26.11654,-12.09449 z"
         id="path20"
         inkscape:connector-curvature="0"
         style="clip-rule:evenodd;fill:#0098da;fill-rule:evenodd;stroke-width:0.03779528;image-rendering:optimizeQuality;shape-rendering:geometricPrecision;text-rendering:geometricPrecision" />
      <path
         class="fil4"
         d="m 251.20178,323.46367 c -3.89292,-9.71339 -6.23622,-27.74173 0.98267,-37.03937 12.32127,-15.87402 37.87087,-18.17953 62.13544,-19.91812 17.08347,-1.24724 50.68348,8.0126 57.90237,17.49922 2.22993,2.94803 -1.05826,5.21575 0,8.20157 0.52914,1.47402 1.24725,2.83465 2.04095,4.11969 1.09606,1.77638 3.51496,-0.26457 3.09921,4.11969 -0.52913,5.51811 -6.12283,8.46614 -4.11968,16.47874 0.86929,3.43937 3.25039,2.49449 2.07874,9.25984 -0.11339,0.60473 -2.91024,5.36693 -3.09922,10.28032 -0.30236,8.91968 -0.26456,17.83937 0,26.72126 0.0756,2.11654 0.8315,4.11969 1.02048,6.19843 0.64252,6.12283 -1.88977,1.47401 4.11968,9.25984 3.96851,5.10236 1.77638,3.43937 8.23937,7.1811 2.38111,1.39843 4.61103,3.09922 7.18111,4.11969 0.98267,0.37795 2.15433,-0.37795 3.09921,0 3.25039,1.36063 6.27402,3.25039 9.25984,5.14016 0.8315,0.52913 3.02362,2.26771 2.04095,2.07874 -4.19528,-0.8315 -2.4567,-1.02048 -7.18111,-1.02048 -2.41889,0 -5.85826,-2.00314 -7.21889,0 -1.24725,1.88977 2.19212,4.0441 3.09921,6.16064 0.15118,0.30236 0.34016,1.02047 0,1.02047 -2.53228,0 -4.15748,-1.6252 -7.1811,-1.02047 -2.53229,0.49133 -8.99528,4.19527 -11.33859,2.04094 -7.67244,-7.02992 -4.42205,-1.47402 -11.30079,0 -4.04409,0.86929 -8.35275,1.02047 -12.35905,0 -5.70709,-1.43622 -6.72756,-9.18425 -12.35906,-2.04094 -0.75591,0.98267 -2.57008,2.98582 -2.45669,3.9307 0.26456,2.19213 -1.88977,-1.73858 -3.70394,-2.91023 -0.64252,-0.41575 -1.39843,-0.64252 -2.04095,-1.02047 -2.87244,-1.70079 -8.0126,-3.62835 -11.33858,-3.09922 -1.96535,0.34016 -8.12599,1.96536 -9.25984,3.09922 -1.20945,1.20944 0.18897,3.43937 0,5.14015 -0.37796,3.62835 5.63149,5.02678 0,6.16063 -7.71024,1.6252 -11.71654,-12.32126 -19.54016,-13.37952 -6.68977,-0.8693 -10.4315,3.9307 -17.15906,3.28818 -3.55276,-0.34015 -2.30551,-2.45669 -4.45984,-5.32913 -3.17481,-4.19528 -8.31497,0.86929 -11.30079,2.04095 -6.4252,2.57007 -13.79528,4.08189 -20.56063,5.17795 -2.07874,0.30236 -7.67245,2.49449 -6.19843,1.02047 2.3811,-2.3811 6.23622,-2.60787 9.25984,-4.11968 2.49449,-1.24725 4.91339,-2.57008 7.2189,-4.11969 0.7937,-0.52913 1.51181,-1.24724 2.04095,-2.04095 0.18897,-0.30236 0.30236,-0.86929 0,-1.05826 -2.34331,-1.47402 -1.51181,-1.02048 -4.11969,-1.02048 -6.99213,0 -9.82677,1.36063 -16.85669,2.38111 -13.75749,1.96535 -32.31497,3.40157 -32.50394,2.75905 -0.52914,-1.81417 4.95118,-2.00315 7.86141,-2.72126 14.13544,-3.40157 33.94017,-3.06142 41.49922,-10.65827 0.34016,-0.34015 -0.52913,-0.98267 -1.02047,-1.02047 -3.06142,-0.30236 -6.16063,-0.15118 -9.25984,0 -3.09922,0.18898 -6.19843,0.52913 -9.25985,1.02047 -4.08189,0.68032 -12.09449,3.66615 -18.3685,3.17481 -0.18898,0 15.1937,-6.38741 17.34803,-7.29449 6.50079,-2.68347 15.76063,-5.93386 19.95591,-12.47244 6.65197,-10.31812 12.39685,-25.02048 4.08189,-45.77009 z"
         id="path22"
         inkscape:connector-curvature="0"
         style="clip-rule:evenodd;fill:#000000;fill-rule:evenodd;stroke-width:0.03779528;image-rendering:optimizeQuality;shape-rendering:geometricPrecision;text-rendering:geometricPrecision" />
      <path
         id="path24"
         d="m 313.20029,270.73286 c -13.71083,0.0638 -28.01034,2.18911 -39.8875,7.71667 -8.0126,3.70394 -10.69679,11.56615 -2.04167,17.5 5.5559,3.77952 10.05422,4.91239 15.9125,7.86042 8.23937,4.11968 24.90709,1.21041 33.6,1.21041 4.0063,-0.41574 9.18298,-2.07866 12.96251,-3.47708 5.36692,-2.15433 25.7388,-11.79398 22.90416,-20.29792 -1.47402,-4.45984 -14.70303,-8.57895 -30.04792,-9.93958 -4.32756,-0.38741 -8.83181,-0.59418 -13.40208,-0.57292 z m -0.89167,3.59167 c 1.81299,-0.0308 3.60808,-0.0268 5.375,0.006 9.78898,0.22677 41.57572,2.64549 34.01667,11.48958 -5.32913,6.23622 -15.61063,12.09414 -23.85,13.64375 -3.32599,0.60473 -37.18958,6.34933 -37.18958,0.30208 -4.49765,-2.26771 -25.39971,-7.97483 -20.63751,-14.92916 0.68032,-1.36063 3.47746,-2.60807 4.76251,-3.175 11.24408,-5.2252 24.83197,-7.12202 37.52291,-7.3375 z m 0.11458,2.94791 c -0.48226,0.003 -0.95908,0.0178 -1.42916,0.0437 -10.46929,0.56692 -23.0933,2.64508 -30.08542,4.875 -1.39842,0.45354 -2.6072,0.94437 -3.55208,1.39792 -0.68031,0.37795 -2.11639,1.17117 -2.41876,1.92708 -2.22992,2.22992 0.3778,5.14143 2.15418,6.23749 5.55588,3.51497 12.43367,3.06177 17.98958,5.82084 7.10551,3.55275 24.49188,0.30228 32.73125,-1.32292 1.36063,-0.30236 2.9108,-0.68128 4.19583,-1.21041 6.68976,-2.64568 17.11983,-6.8408 15.38125,-12.01875 -1.24724,-2.75906 -9.90103,-2.75924 -12.16875,-2.91042 -7.05117,-0.49607 -15.56403,-2.8854 -22.79792,-2.83959 z m 1.58542,3.50418 c 6.52529,0.0972 13.18061,1.62632 19.6625,2.05624 4.64882,0.30237 10.35626,0.0756 10.35626,1.32292 0.94488,2.75905 -11.37663,6.53847 -13.56875,7.74792 -2.57008,1.02047 -5.70792,1.32442 -8.42918,1.66458 -2.64566,0.37796 -25.39792,3.66589 -25.39792,0.83125 -5.44251,-2.68347 -12.32057,-2.22968 -17.6875,-5.63125 -2.75906,-1.73859 1.73762,-2.79675 3.06042,-3.2125 9.25986,-2.98583 19.57888,-4.08248 29.21667,-4.725 0.92599,-0.0519 1.85532,-0.068 2.7875,-0.0542 z m 48.77709,1.04999 c -0.18735,0.006 -0.36923,0.0271 -0.54167,0.0625 -2.26772,0.49134 0.94601,7.21812 -15.34375,16.36457 -3.43937,1.96536 -11.98176,6.35073 -15.38334,8.39167 -4.27086,2.49449 -13.22857,2.64584 -18.10416,2.64584 -5.78267,0 -15.87327,1.09606 -21.42917,0 -5.74488,-1.17166 -11.03721,-5.82061 -16.13959,-6.91666 -5.97164,-1.28505 -6.16099,-4.53675 -10.62083,-6.76668 -1.24724,-0.64252 -1.77625,-4.91255 -2.94791,-5.70624 -1.02047,-0.68032 -2.49439,3.32672 -3.2125,2.30624 -1.02047,-1.39842 1.01985,-6.00987 -0.45417,-6.87916 -0.56693,-0.34016 -6.31061,3.74179 -4.68542,5.85833 1.85197,2.45669 1.88877,3.51439 3.06042,5.13958 2.19213,3.02363 6.65254,4.04352 9.26041,5.13958 4.45985,1.85197 9.29693,3.55261 12.35834,7.21876 1.32285,1.5874 -4.19506,-0.45182 -6.16042,-1.01876 -1.47401,-0.45353 -2.68252,-1.58782 -4.11875,-2.07916 -1.66298,-0.52913 -3.55218,-0.30272 -5.13958,-1.02084 -1.5874,-0.6803 -2.7602,-2.07952 -4.12083,-3.1 -5.10236,-3.81732 -2.30537,-3.13715 -7.21876,-7.18124 -1.17164,-0.98268 -1.55032,2.64681 -2.04166,4.12083 -0.7937,2.30551 1.28612,4.83759 3.06251,6.16041 2.00314,1.47402 3.93019,3.09829 6.19791,4.11876 1.5874,0.71811 3.47659,0.45391 5.13958,1.02083 1.43622,0.49134 2.72241,1.43695 4.12083,2.04166 1.663,0.75592 3.51439,1.20988 5.13959,2.07917 2.15433,1.17166 4.30843,2.49356 6.16041,4.11875 0.60473,0.49134 1.81452,2.04167 1.02083,2.04167 -1.5118,0 -2.60724,-1.66371 -4.08124,-2.04167 -1.36063,-0.34016 -2.8358,0.45355 -4.12084,0 -2.60787,-0.94488 -4.68646,-3.02269 -7.21875,-4.11875 -2.3055,-0.98268 -4.87573,-1.17207 -7.18125,-2.07917 -2.79685,-1.05826 -9.52363,-7.67198 -6.76458,-2.19166 2.72126,5.48031 1.69995,2.45494 5.70625,5.28958 5.82048,4.11969 4.15806,-0.82998 9.26041,5.14167 2.07875,2.45669 -18.10294,-3.74175 -12.92499,-0.26458 4.98897,3.32599 11.18756,4.23251 17.04583,5.40416 2.72127,0.56693 5.62964,0.11345 8.2375,1.05834 2.34333,0.8315 4.31052,2.49384 6.1625,4.08125 0.60472,0.52914 1.3967,1.39885 1.01875,2.07916 -0.90708,1.81418 -1.01946,3.28892 -3.06042,2.04167 -7.10549,-4.23307 -2.19312,-4.00608 -11.33958,-6.16042 -0.94488,-0.22677 -1.1703,2.53092 -2.03959,2.03959 -8.42834,-4.49764 -2.60772,-3.47653 -7.21874,-4.08125 -2.19213,-0.30236 -7.21869,-3.74137 -6.16042,1.02083 0.18898,0.86929 7.33042,6.68991 8.2375,7.18125 2.00315,1.09606 4.00817,2.34201 6.1625,3.09792 2.68346,0.94488 5.44066,1.62592 8.2375,2.04166 1.7008,0.26457 3.44086,-0.22677 5.14166,0 0.75592,0.11339 1.69944,0.34023 2.03959,1.05834 0.49134,0.90708 0.64253,2.26672 0,3.06041 -0.64252,0.86929 -2.00213,0.90716 -3.06042,1.05834 -2.04091,0.22677 -4.19507,0.49134 -6.16041,0 -10.62047,-2.83465 -12.77559,-7.40601 -17.5,-8.2375 -0.64252,-0.11339 0.34123,4.34625 3.0625,6.16041 3.85512,2.57008 8.20086,4.23287 12.35833,6.16042 0.98268,0.49134 2.07954,0.64259 3.1,1.05833 0.71811,0.26457 1.32147,0.71848 2.03958,1.02084 3.62834,1.39843 7.06758,0.98096 7.21875,1.01875 2.26772,0.8315 3.1381,1.05905 3.0625,3.1 -0.0378,1.43622 -1.62627,3.1738 -3.0625,3.06041 -4.98899,-0.26456 -9.71339,-2.41826 -14.4,-4.08124 -4.95117,-1.77638 -10.73385,-9.90186 -14.4,-6.19792 -3.43937,3.43937 6.6907,7.02877 10.28125,10.27916 1.663,1.54961 13.9846,5.70731 15.42083,8.23959 1.02048,1.81417 -5.85876,-1.13394 -7.93749,-1.32291 -10.99843,-0.98268 -23.39609,-12.20723 -17.76459,-3.81668 0.79371,1.20946 1.89085,2.23071 3.0625,3.1 1.24725,0.8693 2.79593,1.28368 4.11875,2.03959 4.8756,2.75905 1.66358,1.81532 9.26042,4.12083 6.34962,1.92756 6.01004,0.4917 9.26041,1.02083 1.39844,0.22678 2.90931,0.30064 4.11876,1.01875 0.64251,0.41576 1.02083,1.32327 1.02083,2.07917 0,0.75591 -0.4917,1.51254 -1.02083,2.04167 -1.20945,1.20945 -2.56914,2.34409 -4.11876,3.1 -0.60472,0.30236 -1.55032,0.45354 -2.04166,0 -8.80628,-8.12599 -4.30889,-3.81919 -8.23958,-6.1625 -1.05827,-0.64252 -1.85067,-1.88811 -3.09792,-2.07709 -3.36378,-0.52913 -10.31904,-3.40157 -10.28125,0 0.0378,4.8756 2.2297,2.53171 6.16041,5.13959 3.96852,2.64567 3.43923,-0.26378 7.21876,3.1 2.11653,1.88977 -5.40494,2.26635 -8.23959,2.03958 -4.00629,-0.30236 -8.69244,-6.46203 -11.52708,-3.58958 -2.53228,2.53228 6.65171,3.09903 5.36667,6.68958 -0.45354,1.28505 -2.79592,-0.34016 -4.11876,0 -0.34015,0.0756 -0.26456,0.79406 0,1.02083 0.52914,0.56694 1.77502,0.34023 2.03959,1.05834 0.52914,1.24724 0.15119,2.72062 0,4.08125 -0.26457,2.53229 -2.34158,0.56642 -1.01875,6.19792 0.37796,1.66298 1.88847,-2.9093 3.09792,-4.11875 1.20945,-1.20946 2.60902,-2.23071 4.12083,-3.1 0.94488,-0.52914 2.07774,-0.60509 3.06041,-1.02084 0.71812,-0.30235 1.32327,-0.79406 2.07917,-1.02083 0.64252,-0.22677 6.31234,6.42681 13.00209,6.72916 8.61734,0.34016 14.0596,-5.59494 15.23125,-5.70833 2.4189,-0.22677 8.01209,20.069 10.99792,4.83751 2.04095,-10.39371 11.60382,-4.19441 20.44791,-9.97709 4.08189,-2.68347 -2.64687,-18.63337 4.68542,-23.9625 3.09921,-2.22992 2.2674,19.50223 4.57292,21.88333 3.8929,4.08189 2.41976,-4.19527 9.22291,0 2.15434,1.32284 -4.83794,1.17209 -7.18125,2.07917 -2.15432,0.8315 -4.23285,1.85276 -6.16041,3.1 -2.68347,1.62519 0.0762,0.37695 -5.13959,3.06042 -1.39842,0.71811 -3.55318,4.46099 -2.07917,4.12083 7.44568,-1.70079 11.1126,-3.81919 17.5,-6.1625 4.23308,-1.54961 4.49695,-2.94819 8.0875,-2.64583 2.11655,0.18898 5.3672,0.83338 4.23334,1.62708 -7.06772,4.91339 -8.91968,2.53077 -14.4,9.25834 -2.4567,3.02361 7.59577,-1.96407 11.3375,-3.09792 1.54961,-0.49134 18.14209,-8.50473 15.42083,-3.1 -1.09606,2.22992 -2.38017,4.42153 -4.11875,6.19792 -1.05826,1.05826 -3.17628,1.13395 -4.6125,1.58749 -3.77952,1.28504 -13.79489,2.11678 -3.51458,3.96875 2.68346,0.49134 7.97425,2.22937 10.20417,0.60417 2.87244,-2.15433 0.75742,-6.87853 5.14166,-6.16041 6.00945,0.94487 1.85047,4.49914 9.25834,5.14166 3.55276,0.30237 -2.72054,-1.85312 2.04166,-4.12083 3.55276,-1.70079 14.66572,2.15562 4.12084,-3.09792 -1.02047,-0.52913 12.20715,0.18746 -2.04167,-5.14167 -9.41102,-3.51496 -17.61266,1.81476 -15.45833,-5.13958 0.7937,-2.49449 1.24652,-2.83371 -2.04167,-4.11875 -3.62834,-1.43622 -4.87538,2.7209 -6.16042,-1.02084 -1.05827,-3.06141 5.66981,-3.1763 8.20209,-5.14166 0.60472,-0.49134 0.79377,-1.35898 1.05833,-2.07709 0.30236,-0.86929 -1.02053,-4.08304 -1.05833,-4.12083 l -2.04167,-2.03958 c -0.0756,-0.0756 -1.24595,-3.17595 -3.09792,-4.12084 -4.15747,-2.15432 -17.65088,-3.51464 -22.33749,-4.57291 -7.52126,-1.66299 -14.51326,-3.43853 -21.88334,-5.70625 -2.98583,-0.90709 23.2063,2.68217 28.8,3.09792 3.06142,0.18897 6.2368,0.52913 9.26041,0 6.19844,-1.13386 12.7355,-22.63923 -5.14166,-21.61876 -3.77953,0.22678 -3.43822,1.47438 -10.27917,1.02084 -4.27087,-0.30236 -6.65254,6.00908 -9.26041,-1.02084 -2.4567,-6.65196 15.68554,-4.04352 22.60208,-5.13958 5.89606,-0.94488 8.27608,-0.0386 11.3375,-3.1 2.34331,-2.34331 2.53343,-0.49004 4.12083,-3.09792 1.58741,-2.64566 -2.94917,-5.10386 -4.12083,-5.14167 -2.75905,-0.0756 -5.48053,-0.0756 -8.23958,0 -1.09607,0.0378 -7.3703,1.36106 -8.23959,2.07917 -1.47401,1.24725 -2.38017,3.21375 -4.11875,4.12084 -3.51495,1.88977 -7.48268,2.83371 -11.3,4.11875 -1.32283,0.41574 -2.7602,0.64288 -4.12083,1.02083 -4.61102,1.28504 -2.07889,2.34367 -7.18125,1.02083 -1.32284,-0.34015 -0.7559,-2.98697 0,-4.12083 0.8315,-1.28504 2.60902,-1.62383 4.12083,-2.03958 0.98268,-0.30236 2.03995,-0.22678 3.06042,0 0.7559,0.15117 1.32326,1.16993 2.07917,1.01875 3.66614,-0.71811 6.38791,0.0391 8.20208,-3.09792 1.05827,-1.73858 -0.6814,-2.15505 -3.0625,-2.04167 -4.30866,0.18898 -2.68332,2.34367 -7.21875,1.02084 -1.32284,-0.37796 -1.02047,-3.21375 0,-4.12084 2.79685,-2.53227 8.54309,-4.72347 12.36041,-4.11875 0.75591,0.15119 1.35892,1.39886 1.01876,2.07917 -0.94489,1.81417 -4.38289,2.64467 -2.03959,3.06041 5.21575,0.98268 10.28069,-2.68252 15.42083,-4.11875 4.91339,-1.36063 2.94617,1.47367 8.23751,-1.02083 2.45669,-1.17165 0.22677,-5.48052 0,-8.23958 -0.11339,-1.05826 -0.45361,-2.15333 -1.05834,-3.06042 -0.79369,-1.20945 -3.06041,-1.62598 -3.06041,-3.1 0,-0.64252 8.73092,1.32269 8.23958,-7.18125 -0.28347,-4.35826 -4.58568,-7.42006 -7.39583,-7.31875 z m -50.56459,1.30209 c -0.44564,-0.009 -0.89285,-0.005 -1.34166,0.009 -20.18268,0.37796 -24.68015,3.85356 -21.35417,3.66459 -4.64882,4.45984 8.31647,5.06518 9.94167,5.25417 6.12284,0.60472 16.77987,1.32191 23.35624,-0.41668 1.92757,-0.45353 11.83022,-1.96423 9.56251,-6.00833 -1.28504,-2.3811 -8.16416,-1.77619 -10.88542,-1.88959 -3.10866,0 -6.15966,-0.551 -9.27917,-0.61249 z m 1.38125,2.72916 4.04376,1.47292 c 1.43621,-0.0378 12.69924,-0.86804 5.32916,0.90833 -4.68661,1.13386 -13.03956,2.53147 -17.575,1.17084 l 4.23333,-1.17084 c -8.88188,-0.71811 -13.34153,-1.13364 -11.225,-1.36041 2.11654,-0.18898 13.53076,-0.94524 15.19375,-1.02084 z"
         style="clip-rule:evenodd;fill:#b7683e;fill-rule:evenodd;stroke-width:1.06666672;image-rendering:optimizeQuality;shape-rendering:geometricPrecision;text-rendering:geometricPrecision"
         inkscape:connector-curvature="0" />
      <g
         id="_775282522288"
         style="clip-rule:evenodd;fill-rule:evenodd;image-rendering:optimizeQuality;shape-rendering:geometricPrecision;text-rendering:geometricPrecision"
         transform="matrix(0.03779528,0,0,0.03779528,-94.851797,-58.608824)">
        <path
           class="fil7 str0"
           d="m 9854,8268 c 183,-128 345,-211 594,-441 290,-267 732,-678 1132,-987 l 384,-296 c 0,0 97,-29 140,37 43,66 -11,215 -11,215 0,0 -431,342 -613,474 -183,132 -688,616 -914,841 -160,160 -428,320 -571,399 z"
           id="path33"
           inkscape:connector-curvature="0"
           style="fill:#373435;stroke:#373435;stroke-width:7.61999989" />
        <path
           class="fil8 str0"
           d="m 9864,8284 c 190,-135 339,-196 598,-430 282,-254 718,-679 1102,-979 l 375,-293 c 0,0 104,-47 146,16 42,63 -21,210 -21,210 0,0 -429,335 -607,461 -178,125 -660,592 -880,806 -175,171 -480,340 -600,404 z"
           id="path35"
           inkscape:connector-curvature="0"
           style="fill:#84716b;stroke:#373435;stroke-width:7.61999989" />
        <path
           class="fil7 str0"
           d="m 9438,8527 c -15,-25 -17,-102 28,-133 l 220,-164 c 55,-41 140,-10 160,23 l 173,298 c 31,54 23,95 -3,124 l 396,131 c 36,2 69,18 101,39 -82,141 -147,227 -274,331 -9,7 -39,18 -50,21 -43,8 -238,46 -337,49 l -124,-358 c -27,10 -85,9 -106,-29 z"
           id="path37"
           inkscape:connector-curvature="0"
           style="fill:#000000;stroke:#373435;stroke-width:7.61999989" />
        <path
           class="fil9"
           d="m 9920,8381 c 118,-81 753,-520 815,-606 68,-94 1101,-976 1143,-1002 41,-26 94,-79 110,-37 15,42 -131,126 -131,126 0,0 -221,184 -331,268 -110,84 -948,839 -1095,949 -132,100 -432,302 -488,340 z"
           id="path39"
           inkscape:connector-curvature="0"
           style="fill:#a98f71" />
        <path
           class="fil1"
           d="m 9469,8524 c -13,-24 -15,-86 27,-115 l 207,-144 c 53,-38 107,-5 125,26 l 168.9996,276 c 30.0004,49 16.0004,104 -9,131 L 10381,8821 c 33,2 65,12 95,31 -73,126 -163,228 -264,321 -11,10 -18,25 -32,29 -135,33 -224.0004,38 -288.9998,45 L 9747,8873 c -25,10 -80,-1 -99,-36 z"
           id="path41"
           inkscape:connector-curvature="0"
           style="fill:#bdbfc1" />
      </g>
      <g
         id="_775282492272"
         style="clip-rule:evenodd;fill-rule:evenodd;image-rendering:optimizeQuality;shape-rendering:geometricPrecision;text-rendering:geometricPrecision"
         transform="matrix(0.03779528,0,0,0.03779528,-94.851797,-58.608824)">
        <g
           id="g44">
          <path
             class="fil10"
             d="m 10614,9334 c 0,0 204,-499 285,-600 82,-102 265,-331 265,-331 -10,-16 -16,-35 -31,-46 -32,-25 -90,-24 -106,-61 -25,-56 22,-127 0,-184 -37,-92 -110,-165 -168,-244 -44,-58 -84,-120 -138,-168 -35,-31 -126,-18 -126,-65 0,-43 84,-18 126,-27 0,0 50,-245 50,-290 0,-46 76,-124 76,-124 -5,-20 -23,-41 -15,-60 10,-19 47,-11 57,-30 38,-71 42,-158 81,-229 48,-89 145,-149 179,-244 25,-73 -16,-154 -11,-230 1,-23 25,-83 30,-61 24,89 28,183 27,275 -1,42 -11,86 -31,123 -32,57 -91,95 -122,152 -39,72 -59,153 -87,229 -21,56 -42,112 -61,168 -28,81 -58,162 -81,245 -9,30 -31,65 -16,92 36,62 90,117 153,152 21,12 46,-44 66,-31 26,18 18,62 26,92 16,61 32,122 46,184 8,40 14,81 19,122 5,30 -10,69 11,92 45,45 124,45 168,91 21,22 19,65 5,92 -38,70 -108,117 -153,183 -67,98 -129,200 -183,305 -54,104 -103,211 -142,321 -23,64 2,151 -46,199 -26,26 -46,-58 -77,-76 -22,-14 -50,-10 -76,-16 z"
             id="path46"
             inkscape:connector-curvature="0"
             style="fill:#a45e4d" />
          <path
             class="fil11"
             d="m 10724,9295 c 43,-138 99,-273 167,-400 81,-150 185,-286 278,-428 19,-30 69,-54 58,-87 -19,-54 -101,-65 -127,-116 -36,-68 -22,-155 -52,-226 -33,-74 -87,-137 -133,-202 -52,-74 -150,-126 -162,-215 -16,-114 52,-225 86,-336 12,-38 37,-72 52,-110 43,-101 70,-209 122,-306 32,-60 91,-100 127,-157 19,-29 33,-63 35,-98 4,-81 -20,-162 -18,-243 1,-13 22,16 24,29 10,67 16,135 11,202 -3,42 -14,104 -35,140 -32,58 -96,109 -126,168 -50,97 -68,192 -108,293 -16,41 -27,90 -43,131 -25,65 -45,136 -64,202 -10,34 -29,49 -19,82 15,48 83,99 118,134 18,19 37,26 55,15 20,-11 38,-40 56,-16 10,15 -6,36 0,68 13,62 45,134 58,165 15,37 8,98 17,137 10,42 -9,84 16,120 33,47 122,52 159,97 11,13 -18,76 -26,91 -62,109 -132,181 -200,287 -47,74 -102,158 -138,238 -64,139 -102,280 -171,416 -12,23 -25,-51 -17,-75 z"
             id="path48"
             inkscape:connector-curvature="0"
             style="fill:#cb7246" />
        </g>
        <g
           id="g50">
          <path
             class="fil7 str0"
             d="m 10971,8246 c -58,-42 -94,-73 -137,-131 -15,-21 -9,-51 -15,-76 -4,-16 -10,-31 -15,-46 -10,-31 -10,-67 -31,-92 -28,-34 -76,-45 -107,-76 -16,-16 -9,-52 -30,-61 -24,-10 -55,30 -77,15 -53,-37 -64,-124 -122,-153 -37,-18 -81,39 -122,31 -47,-9 -76,-63 -122,-77 -30,-8 -61,18 -92,16 -52,-4 -103,-47 -153,-31 -30,10 -3,75 -30,92 -27,16 -62,-24 -92,-15 -15,4 0,39 -15,45 -53,22 -153,-24 -168,31 -16,59 88,86 122,137 8,13 -10,35 0,46 24,28 78,27 92,61 12,30 -45,63 -31,92 23,46 80,63 122,92 19,12 49,11 61,30 12,17 -17,50 0,61 39,26 96,9 138,31 38,20 50,79 92,92 35,11 69,-34 106,-31 36,3 62,39 97,46 38,8 80,-12 117,0 31,10 44,61 77,61 29,0 40,-41 61,-61 25,-26 43,-64 76,-76 38,-15 82,-3 122,0 44,2 88,22 131,13 16,-3 28,-32 18,-44 -13,-14 -58,-10 -73,-22 z"
             id="path52"
             inkscape:connector-curvature="0"
             style="fill:#000000;stroke:#373435;stroke-width:7.61999989" />
          <path
             class="fil12"
             d="m 9687,7730 c 104,57 291,93 401,134 55,21 107,37 162,61 32,14 67,49 101,39 17,-6 2,-20 -6,-35 -18,-34 -64,-83 -87,-116 -27,-41 -69,-84 -87,-130 -6,-17 -2,-36 3,-52 3,-9 12,-18 3,-24 -26,-18 -58,33 -89,31 -44,-3 -83,-60 -125,-46 -31,11 5,78 -23,95 -29,18 -66,-25 -100,-20 -15,3 -7,35 -21,40 -41,17 -172,2 -132,23 z"
             id="path54"
             inkscape:connector-curvature="0"
             style="fill:#00a859" />
          <path
             class="fil12"
             d="m 10404,7988 c -32,-25 -42,-73 -64,-107 -44,-70 -104,-112 -142,-185 -11,-21 -17,-86 6,-87 38,-3 56,56 93,63 39,8 90,-48 117,-19 10,10 -8,24 -8,38 -2,32 0,71 7,103 11,57 33,113 63,162 27,43 151,89 105,110 -22,10 -45,-3 -69,-13 -38,-16 -77,-40 -108,-65 z"
             id="path56"
             inkscape:connector-curvature="0"
             style="fill:#00a859" />
          <path
             class="fil12"
             d="m 10442,7650 c -16,0 -14,30 -16,46 -3,33 -1,70 14,101 22,48 30,103 59,147 20,32 68,47 92,77 15,18 11,51 31,63 41,26 94,30 134,58 34,23 74,54 134,63 38,6 -68,-44 -87,-78 -13,-25 5,-58 -1,-86 -9,-40 -22,-79 -42,-115 -8,-15 -25,-25 -41,-34 -17,-9 -41,-4 -55,-18 -20,-19 -17,-59 -41,-73 -24,-15 -61,15 -83,-2 -47,-37 -39,-148 -98,-149 z"
             id="path58"
             inkscape:connector-curvature="0"
             style="fill:#00a859" />
          <path
             class="fil12"
             d="m 9749,7791 c 37,1 73,16 107,28 57,19 112,40 169,62 91,35 171,40 253,91 39,25 -75,6 -118,23 -42,16 -71,55 -102,87 -15,15 -16,45 -35,52 -25,9 -54,0 -76,-13 -34,-19 -72,-43 -85,-80 -10,-28 33,-58 25,-87 -8,-26 -48,-29 -65,-50 -8,-11 -1,-29 -8,-40 -18,-28 -97,-75 -65,-73 z"
             id="path60"
             inkscape:connector-curvature="0"
             style="fill:#00a859" />
          <path
             class="fil12"
             d="m 10033,8212 c -23,-27 15,-74 38,-103 26,-35 63,-65 104,-80 57,-21 121,-36 181,-26 47,8 75,37 120,59 25,13 74,26 99,37 69,31 104,31 184,75 47,26 -92,17 -144,31 -41,11 -57,16 -90,43 -26,23 -54,87 -87,98 -35,12 -59,-30 -95,-36 -28,-5 -57,14 -85,8 -22,-4 -41,-21 -57,-37 -14,-15 -11,-47 -31,-55 -42,-18 -107,21 -137,-14 z"
             id="path62"
             inkscape:connector-curvature="0"
             style="fill:#00a859" />
          <path
             class="fil12"
             d="m 10827,8212 c 47,6 85,41 129,58 19,7 52,-5 59,14 5,16 -35,7 -52,6 -67,-2 -138,-35 -201,-13 -57,20 -69,110 -125,129 -31,10 -42,-54 -72,-64 -29,-9 -63,32 -78,6 -15,-26 24,-66 47,-84 33,-25 72,-31 111,-40 62,-15 120,-20 182,-12 z"
             id="path64"
             inkscape:connector-curvature="0"
             style="fill:#00a859" />
        </g>
        <g
           id="g66">
          <path
             class="fil7 str0"
             d="m 10613,7562 c -2,-57 1,-95 24,-153 9,-21 40,-35 59,-53 11,-11 20,-23 31,-35 20,-24 53,-45 61,-71 12,-35 -11,-69 -4,-104 3,-19 40,-36 34,-53 -7,-19 -65,-14 -67,-34 -3,-52 68,-108 54,-158 -9,-32 -90,-23 -112,-51 -24,-32 5,-80 -15,-113 -13,-22 -58,-25 -77,-43 -33,-31 -29,-86 -78,-104 -30,-11 -70,42 -104,36 -33,-5 -21,-49 -49,-60 -15,-7 -36,22 -52,18 -56,-17 -84,-101 -143,-77 -65,25 -18,100 -40,148 -6,13 -38,15 -42,27 -8,30 30,60 8,87 -18,24 -87,11 -103,36 -26,39 -3,82 1,122 2,18 23,34 15,53 -8,16 -57,19 -56,35 4,37 59,59 68,95 8,34 -37,75 -20,105 15,27 78,20 101,43 22,21 8,57 26,81 18,26 65,38 80,66 13,23 -25,60 -2,79 20,16 65,-1 97,-2 41,0 87,-12 122,-1 39,13 58,45 84,69 28,26 41,62 78,82 14,6 48,-3 52,-16 4,-15 -31,-39 -31,-54 z"
             id="path68"
             inkscape:connector-curvature="0"
             style="fill:#000000;stroke:#373435;stroke-width:7.61999989" />
          <path
             class="fil12"
             d="m 10194,6538 c 20,93 117,219 156,305 19,43 40,81 56,126 10,27 3,66 35,79 17,7 19,-9 27,-23 18,-30 30,-84 45,-116 18,-39 28,-88 57,-124 11,-14 31,-23 49,-29 11,-4 25,-4 24,-13 -1,-25 -69,-13 -89,-32 -28,-27 -3,-81 -45,-97 -31,-11 -67,48 -102,42 -36,-6 -23,-52 -51,-67 -12,-7 -35,15 -50,11 -44,-14 -120,-96 -112,-62 z"
             id="path70"
             inkscape:connector-curvature="0"
             style="fill:#00a859" />
          <path
             class="fil12"
             d="m 10455,7093 c 1,-33 38,-67 53,-99 33,-65 30,-123 69,-188 11,-18 66,-58 83,-46 28,19 -12,64 7,89 19,26 106,22 98,55 -2,11 -27,9 -40,17 -31,18 -64,42 -88,64 -44,39 -79,84 -103,130 -20,40 24,137 -27,123 -24,-7 -28,-28 -36,-46 -12,-32 -17,-67 -16,-99 z"
             id="path72"
             inkscape:connector-curvature="0"
             style="fill:#00a859" />
          <path
             class="fil12"
             d="m 10787,6918 c -11,-9 -37,9 -52,17 -33,18 -65,40 -83,67 -28,40 -71,77 -92,119 -14,30 5,66 -5,96 -6,19 -39,36 -36,54 5,39 38,70 41,110 2,32 1,73 35,112 21,24 -8,-64 10,-94 14,-23 55,-32 77,-51 30,-28 56,-58 75,-90 8,-14 5,-30 2,-43 -3,-15 -24,-26 -22,-42 4,-23 42,-44 39,-66 -3,-21 -57,-25 -56,-48 1,-47 107,-107 67,-141 z"
             id="path74"
             inkscape:connector-curvature="0"
             style="fill:#00a859" />
          <path
             class="fil12"
             d="m 10182,6609 c 25,22 35,50 49,76 22,43 41,87 60,132 31,71 82,120 92,195 5,37 -57,-39 -102,-53 -43,-14 -98,-8 -149,-7 -23,1 -51,18 -71,10 -24,-8 -37,-30 -41,-50 -6,-30 -10,-66 14,-94 18,-23 75,-15 96,-37 19,-19 -7,-43 1,-65 3,-11 25,-17 30,-28 13,-26 0,-98 21,-79 z"
             id="path76"
             inkscape:connector-curvature="0"
             style="fill:#00a859" />
          <path
             class="fil12"
             d="m 9998,7014 c 8,-29 77,-35 118,-39 50,-5 103,-2 145,12 58,20 116,48 148,88 25,30 19,63 29,101 6,22 28,57 35,77 20,58 44,77 59,148 9,41 -78,-42 -127,-63 -38,-17 -54,-23 -101,-26 -39,-2 -115,20 -148,8 -34,-13 -14,-51 -33,-75 -15,-18 -52,-24 -66,-43 -11,-15 -10,-35 -6,-53 4,-18 35,-34 29,-50 -14,-34 -93,-48 -82,-85 z"
             id="path78"
             inkscape:connector-curvature="0"
             style="fill:#00a859" />
          <path
             class="fil12"
             d="m 10546,7461 c 26,30 21,72 36,107 6,15 40,26 28,41 -11,12 -30,-16 -42,-26 -45,-39 -63,-98 -127,-121 -57,-20 -146,26 -202,4 -30,-11 19,-54 7,-77 -11,-22 -71,-17 -58,-41 12,-23 76,-25 109,-22 44,4 76,23 112,40 56,26 101,55 137,95 z"
             id="path80"
             inkscape:connector-curvature="0"
             style="fill:#00a859" />
        </g>
        <g
           id="g82">
          <path
             class="fil7 str0"
             d="m 11050,7753 c 36,-35 62,-56 113,-75 18,-7 46,5 68,6 14,1 28,-1 41,-1 28,-1 60,8 82,-2 30,-14 38,-49 64,-65 14,-9 47,4 54,-10 9,-16 -29,-50 -17,-63 31,-33 109,-20 133,-59 15,-25 -39,-72 -33,-102 5,-34 53,-44 63,-77 7,-21 -18,-51 -18,-75 1,-39 38,-69 21,-111 -11,-26 -68,-20 -85,-45 -16,-25 19,-43 10,-68 -5,-13 -36,-10 -43,-23 -22,-46 15,-113 -35,-137 -55,-27 -75,48 -120,62 -11,4 -31,-15 -41,-10 -24,12 -21,54 -51,56 -27,3 -59,-49 -85,-45 -40,7 -54,47 -77,74 -11,11 -9,34 -25,40 -15,5 -46,-25 -56,-15 -22,25 -3,73 -21,100 -17,25 -69,21 -79,50 -8,25 34,62 33,90 -1,27 -32,39 -38,64 -5,28 15,65 6,91 -7,22 -53,20 -52,45 2,23 39,41 59,62 24,26 59,48 72,77 15,33 6,64 6,95 0,34 -16,63 -6,99 4,12 30,29 41,23 12,-6 7,-42 16,-51 z"
             id="path84"
             inkscape:connector-curvature="0"
             style="fill:#000000;stroke:#373435;stroke-width:7.61999989" />
          <path
             class="fil12"
             d="m 11458,6877 c -46,68 -70,205 -102,280 -17,38 -29,75 -48,111 -11,23 -41,41 -30,70 5,15 17,6 31,4 30,-6 72,-31 101,-41 36,-11 73,-33 114,-36 15,-2 32,6 47,14 9,5 17,13 22,8 16,-16 -32,-53 -32,-77 1,-33 50,-50 36,-86 -11,-26 -71,-14 -88,-40 -17,-27 20,-46 14,-73 -3,-12 -32,-13 -37,-25 -18,-37 -10,-135 -28,-109 z"
             id="path86"
             inkscape:connector-curvature="0"
             style="fill:#00a859" />
          <path
             class="fil12"
             d="m 11258,7373 c 21,-18 65,-15 94,-24 62,-18 97,-54 162,-67 18,-4 77,7 79,26 4,29 -48,30 -53,57 -6,28 48,81 23,95 -9,6 -22,-12 -35,-16 -30,-8 -65,-16 -93,-18 -51,-5 -101,-1 -145,11 -37,11 -74,97 -94,56 -10,-20 0,-35 8,-51 13,-26 32,-50 54,-69 z"
             id="path88"
             inkscape:connector-curvature="0"
             style="fill:#00a859" />
          <path
             class="fil12"
             d="m 11567,7482 c -1,-12 -28,-18 -43,-23 -30,-10 -63,-17 -91,-13 -43,6 -92,0 -131,11 -28,9 -39,43 -65,54 -16,7 -46,-4 -56,9 -22,26 -23,66 -46,91 -19,21 -46,44 -51,89 -3,28 36,-43 66,-49 23,-5 53,17 78,19 36,3 71,2 103,-5 14,-3 22,-14 29,-24 7,-11 2,-31 14,-39 16,-11 52,1 64,-14 12,-15 -16,-52 -2,-65 31,-27 133,5 131,-41 z"
             id="path90"
             inkscape:connector-curvature="0"
             style="fill:#00a859" />
          <path
             class="fil12"
             d="m 11407,6912 c 0,28 -12,52 -21,76 -14,40 -31,77 -48,117 -28,62 -29,123 -71,174 -21,25 -9,-59 -27,-97 -17,-36 -53,-67 -83,-99 -15,-15 -42,-23 -49,-40 -9,-21 -3,-42 8,-56 16,-22 36,-46 68,-47 26,-1 55,40 81,40 23,0 24,-30 42,-38 10,-5 26,6 36,3 24,-8 63,-58 64,-33 z"
             id="path92"
             inkscape:connector-curvature="0"
             style="fill:#00a859" />
          <path
             class="fil12"
             d="m 11037,7033 c 24,-12 68,29 96,53 32,29 61,64 77,100 22,49 38,102 32,147 -5,34 -30,49 -48,79 -10,16 -20,52 -29,68 -25,47 -23,74 -59,125 -22,31 -20,-75 -35,-119 -12,-34 -17,-48 -44,-79 -22,-27 -81,-63 -93,-91 -11,-30 25,-39 29,-65 3,-21 -16,-48 -12,-68 3,-17 17,-28 32,-36 13,-8 42,3 48,-11 14,-29 -24,-88 6,-103 z"
             id="path94"
             inkscape:connector-curvature="0"
             style="fill:#00a859" />
          <path
             class="fil12"
             d="m 11075,7650 c -4,35 -34,56 -47,86 -6,13 7,42 -10,42 -14,1 -8,-28 -8,-41 -2,-52 26,-99 2,-154 -20,-48 -103,-79 -122,-127 -11,-26 46,-20 54,-41 7,-20 -32,-56 -9,-62 23,-5 62,34 79,57 24,31 31,63 41,95 16,52 24,98 20,145 z"
             id="path96"
             inkscape:connector-curvature="0"
             style="fill:#00a859" />
        </g>
        <g
           id="g98">
          <path
             class="fil7 str0"
             d="m 11321,8277 c 66,-32 107,-56 161,-106 19,-18 18,-50 29,-74 7,-14 16,-28 24,-42 16,-29 23,-65 48,-86 34,-29 84,-31 121,-57 19,-13 19,-50 42,-55 26,-6 49,40 73,30 61,-27 87,-112 151,-130 41,-12 74,53 116,53 49,0 88,-48 137,-53 31,-3 57,29 88,33 53,6 113,-28 159,-2 28,16 -11,75 13,97 23,21 66,-12 94,2 15,7 -7,40 7,48 48,32 158,5 162,62 5,63 -104,70 -148,115 -10,11 4,36 -8,46 -29,23 -83,12 -103,44 -18,27 33,71 13,97 -31,41 -92,48 -139,68 -21,10 -51,3 -67,20 -14,14 8,52 -11,61 -44,18 -98,-10 -143,4 -42,13 -66,70 -109,75 -38,4 -64,-47 -101,-51 -36,-4 -69,27 -105,28 -40,1 -78,-27 -117,-22 -33,4 -56,53 -88,47 -29,-6 -33,-49 -50,-73 -20,-30 -31,-71 -62,-91 -35,-21 -81,-17 -122,-22 -44,-6 -92,5 -133,-12 -15,-6 -22,-37 -9,-46 15,-12 60,0 77,-8 z"
             id="path100"
             inkscape:connector-curvature="0"
             style="fill:#000000;stroke:#373435;stroke-width:7.61999989" />
          <path
             class="fil12"
             d="m 12700,8002 c -115,37 -309,37 -426,58 -59,11 -114,17 -173,30 -35,8 -76,36 -108,20 -16,-9 1,-19 12,-33 24,-31 80,-71 109,-100 35,-35 84,-71 111,-113 10,-16 8,-36 6,-53 -1,-10 -8,-20 2,-24 29,-14 52,43 84,47 44,5 93,-44 133,-22 28,16 -20,77 5,99 26,23 71,-13 103,-1 15,5 1,35 14,44 38,24 172,34 128,48 z"
             id="path102"
             inkscape:connector-curvature="0"
             style="fill:#00a859" />
          <path
             class="fil12"
             d="m 11936,8125 c 36,-19 55,-66 83,-96 58,-61 125,-92 177,-158 15,-18 32,-82 10,-88 -37,-9 -67,46 -105,46 -40,1 -80,-65 -113,-41 -12,8 3,25 1,40 -4,32 -14,71 -26,101 -22,55 -54,107 -94,150 -35,38 -168,61 -125,90 20,14 46,5 71,0 42,-8 84,-25 121,-44 z"
             id="path104"
             inkscape:connector-curvature="0"
             style="fill:#00a859" />
          <path
             class="fil12"
             d="m 11961,7780 c 16,3 8,32 7,49 -3,33 -12,70 -33,98 -31,44 -50,97 -86,136 -27,28 -78,34 -107,59 -18,15 -20,49 -42,58 -47,18 -100,12 -146,32 -38,17 -83,41 -145,38 -39,-1 76,-31 101,-61 19,-23 7,-59 18,-86 16,-38 36,-75 63,-107 11,-14 30,-21 47,-26 19,-6 43,3 59,-8 24,-15 28,-56 54,-66 27,-10 59,27 84,14 54,-28 66,-140 126,-130 z"
             id="path106"
             inkscape:connector-curvature="0"
             style="fill:#00a859" />
          <path
             class="fil12"
             d="m 12626,8050 c -37,-5 -75,3 -111,8 -61,8 -120,19 -181,30 -98,18 -179,8 -270,44 -44,17 74,20 114,45 38,24 60,69 85,106 12,18 7,48 26,59 22,13 53,10 78,1 37,-13 80,-30 100,-64 15,-26 -23,-64 -9,-92 12,-25 53,-20 74,-38 11,-9 6,-28 16,-38 23,-24 111,-56 78,-61 z"
             id="path108"
             inkscape:connector-curvature="0"
             style="fill:#00a859" />
          <path
             class="fil12"
             d="m 12263,8418 c 29,-23 -1,-77 -18,-110 -20,-40 -50,-77 -88,-100 -54,-32 -115,-58 -177,-59 -48,-1 -82,22 -130,36 -28,8 -80,12 -106,18 -75,18 -110,12 -198,41 -52,17 88,34 138,58 39,18 54,26 81,60 23,28 38,97 69,114 33,18 65,-19 102,-18 28,0 54,24 83,24 23,-1 45,-13 64,-27 17,-12 20,-45 41,-49 46,-10 103,41 139,12 z"
             id="path110"
             inkscape:connector-curvature="0"
             style="fill:#00a859" />
          <path
             class="fil12"
             d="m 11470,8269 c -48,-3 -92,25 -139,34 -20,3 -51,-15 -61,2 -9,16 33,14 50,17 68,10 145,-10 204,24 52,31 47,123 101,152 28,16 51,-45 83,-50 31,-4 57,43 77,20 20,-22 -12,-70 -32,-93 -27,-30 -65,-43 -103,-60 -59,-26 -115,-43 -180,-46 z"
             id="path112"
             inkscape:connector-curvature="0"
             style="fill:#00a859" />
        </g>
        <g
           id="g114">
          <path
             class="fil7 str0"
             d="m 11069,8797 c 29,7 47,14 73,33 9,7 12,24 18,36 4,7 9,13 14,20 8,13 15,32 26,40 16,10 36,3 53,11 8,4 12,25 21,24 11,-1 16,-30 26,-28 26,5 44,48 71,47 17,0 23,-41 40,-48 19,-8 39,13 58,7 13,-3 20,-25 32,-32 19,-12 46,-3 61,-25 10,-13 -11,-40 -4,-56 7,-15 27,-4 37,-16 5,-7 -7,-21 -2,-28 16,-26 61,-28 57,-61 -4,-35 -47,-22 -68,-40 -5,-4 -2,-20 -8,-24 -13,-8 -33,7 -44,-7 -9,-13 6,-45 -4,-56 -16,-18 -40,-12 -61,-16 -9,-1 -20,7 -27,0 -7,-6 -2,-30 -11,-32 -18,-3 -37,21 -56,21 -17,-1 -32,-28 -49,-24 -15,4 -20,36 -35,45 -13,8 -29,-4 -43,1 -16,6 -28,28 -44,31 -13,4 -26,-20 -38,-11 -11,7 -8,32 -12,48 -6,20 -6,45 -16,60 -12,18 -30,23 -45,33 -17,10 -37,12 -51,28 -5,5 -5,24 1,27 7,4 23,-10 30,-8 z"
             id="path116"
             inkscape:connector-curvature="0"
             style="fill:#000000;stroke:#373435;stroke-width:7.61999989" />
          <path
             class="fil12"
             d="m 11632,8726 c -49,-2 -124,29 -172,37 -23,4 -45,9 -70,11 -14,1 -33,-8 -43,7 -6,7 2,10 7,16 13,13 38,26 52,38 17,14 40,26 54,45 5,7 7,18 7,28 1,6 -1,12 3,13 13,3 16,-32 28,-39 17,-11 41,9 54,-10 10,-13 -15,-39 -7,-56 8,-17 29,-4 40,-16 5,-5 -3,-20 1,-26 13,-20 64,-47 46,-48 z"
             id="path118"
             inkscape:connector-curvature="0"
             style="fill:#00a859" />
          <path
             class="fil12"
             d="m 11323,8782 c 16,4 28,27 41,39 28,25 57,31 84,59 8,8 20,41 12,48 -13,11 -30,-15 -45,-9 -16,6 -25,49 -40,41 -6,-2 -1,-14 -3,-22 -5,-17 -12,-37 -20,-52 -14,-27 -31,-50 -51,-68 -17,-16 -71,-7 -57,-30 7,-11 17,-10 28,-11 17,-2 35,0 51,5 z"
             id="path120"
             inkscape:connector-curvature="0"
             style="fill:#00a859" />
          <path
             class="fil12"
             d="m 11365,8969 c 6,-4 0,-19 -2,-28 -4,-18 -11,-37 -22,-50 -16,-19 -28,-45 -46,-61 -13,-11 -33,-6 -47,-15 -9,-6 -13,-25 -22,-26 -20,-2 -40,10 -60,6 -16,-3 -36,-9 -60,2 -15,8 33,5 45,18 10,10 8,32 15,45 10,18 22,36 35,49 6,6 14,7 21,7 8,0 16,-9 23,-5 11,4 16,26 28,27 11,2 20,-24 31,-21 23,7 39,67 61,52 z"
             id="path122"
             inkscape:connector-curvature="0"
             style="fill:#00a859" />
          <path
             class="fil12"
             d="m 11598,8711 c -14,9 -29,11 -44,14 -24,5 -48,9 -73,12 -40,6 -70,25 -109,20 -18,-3 27,-23 40,-44 13,-19 17,-47 23,-72 3,-12 -1,-28 5,-37 7,-11 20,-14 30,-14 16,2 34,4 45,20 8,12 -3,39 5,52 7,12 23,3 33,10 4,3 5,14 9,18 11,10 49,13 36,21 z"
             id="path124"
             inkscape:connector-curvature="0"
             style="fill:#00a859" />
          <path
             class="fil12"
             d="m 11423,8566 c 13,8 7,43 3,64 -4,25 -12,51 -25,70 -18,26 -39,51 -63,61 -19,9 -34,1 -54,1 -12,0 -32,6 -43,7 -31,2 -44,12 -81,10 -22,-1 31,-34 48,-55 14,-16 19,-23 26,-46 6,-19 6,-60 16,-75 11,-15 27,0 41,-6 12,-5 19,-23 31,-27 9,-3 18,0 27,4 8,5 12,22 21,21 18,-2 36,-40 53,-29 z"
             id="path126"
             inkscape:connector-curvature="0"
             style="fill:#00a859" />
          <path
             class="fil12"
             d="m 11128,8777 c -18,10 -38,1 -57,4 -8,1 -19,17 -24,8 -5,-7 11,-12 18,-17 25,-17 57,-18 77,-46 17,-26 7,-76 25,-101 9,-14 24,17 37,14 12,-3 18,-33 28,-24 10,10 2,41 -4,57 -8,22 -21,35 -34,50 -20,25 -41,43 -66,55 z"
             id="path128"
             inkscape:connector-curvature="0"
             style="fill:#00a859" />
        </g>
        <g
           id="g130">
          <path
             class="fil7 str0"
             d="m 11117,6328 c -21,-36 -37,-59 -70,-88 -12,-11 -32,-10 -47,-15 -10,-4 -19,-9 -28,-13 -18,-8 -41,-11 -55,-25 -19,-19 -22,-47 -39,-67 -9,-11 -32,-10 -36,-23 -4,-14 24,-28 17,-42 -19,-33 -72,-47 -86,-82 -8,-23 32,-43 31,-67 -1,-28 -33,-49 -37,-76 -2,-18 17,-33 18,-51 3,-30 -20,-63 -5,-89 10,-17 48,4 61,-10 13,-14 -9,-37 -1,-54 4,-8 25,4 31,-4 18,-28 -1,-90 35,-93 39,-5 46,57 76,81 7,5 22,-3 29,3 15,16 10,47 30,58 18,9 44,-21 61,-10 27,17 33,51 47,77 6,12 3,29 13,37 10,8 34,-5 39,6 13,24 -3,55 7,80 9,24 45,36 49,60 4,21 -27,37 -29,58 -2,21 19,39 20,59 2,23 -15,45 -11,67 4,18 35,30 32,49 -3,16 -30,19 -45,29 -18,13 -44,19 -55,37 -13,21 -9,46 -12,70 -2,25 6,52 -3,75 -4,9 -23,14 -30,7 -7,-9 -1,-34 -7,-44 z"
             id="path132"
             inkscape:connector-curvature="0"
             style="fill:#000000;stroke:#373435;stroke-width:7.61999989" />
          <path
             class="fil12"
             d="m 10909,5555 c 27,64 32,173 48,239 8,33 14,64 24,97 5,20 24,43 15,61 -5,9 -13,0 -22,-6 -20,-13 -46,-44 -65,-59 -24,-19 -47,-47 -75,-61 -10,-5 -22,-4 -33,-2 -6,1 -12,5 -15,-1 -10,-16 26,-30 27,-48 2,-25 -30,-52 -17,-75 10,-16 49,10 63,-5 13,-15 -10,-40 -4,-58 3,-9 23,-1 27,-9 15,-22 18,-98 27,-73 z"
             id="path134"
             inkscape:connector-curvature="0"
             style="fill:#00a859" />
          <path
             class="fil12"
             d="m 11006,5984 c -13,-20 -43,-30 -62,-45 -40,-31 -61,-68 -104,-97 -12,-8 -53,-16 -56,-3 -5,21 30,36 32,58 1,23 -39,47 -24,65 6,7 16,-3 26,-2 20,2 45,7 64,13 35,11 69,28 97,50 25,18 43,93 60,69 8,-12 2,-27 -2,-41 -6,-23 -18,-47 -31,-67 z"
             id="path136"
             inkscape:connector-curvature="0"
             style="fill:#00a859" />
          <path
             class="fil12"
             d="m 10788,5977 c 1,-9 20,-5 31,-5 21,1 44,6 63,16 28,17 62,27 88,47 18,14 23,42 39,58 11,10 32,11 38,23 12,26 10,56 24,82 11,21 28,46 27,81 0,22 -21,-43 -41,-56 -15,-10 -37,-2 -54,-8 -25,-8 -49,-19 -69,-33 -9,-6 -14,-17 -18,-27 -4,-10 1,-23 -6,-33 -11,-13 -36,-14 -43,-29 -7,-14 15,-33 6,-47 -19,-30 -90,-35 -85,-69 z"
             id="path138"
             inkscape:connector-curvature="0"
             style="fill:#00a859" />
          <path
             class="fil12"
             d="m 10942,5595 c -3,22 4,43 8,63 6,34 15,67 23,102 14,55 10,101 35,151 12,24 10,-42 25,-65 15,-22 42,-36 65,-51 11,-7 30,-5 36,-15 8,-14 6,-31 -1,-45 -9,-21 -20,-44 -43,-55 -17,-8 -40,14 -57,7 -16,-6 -14,-29 -26,-41 -6,-5 -18,-3 -25,-8 -15,-12 -38,-61 -40,-43 z"
             id="path140"
             inkscape:connector-curvature="0"
             style="fill:#00a859" />
          <path
             class="fil12"
             d="m 11183,5792 c -15,-16 -48,2 -69,13 -24,12 -47,30 -61,52 -18,31 -34,66 -33,101 1,28 16,46 26,73 6,16 10,45 15,60 13,42 9,61 30,111 12,29 20,-51 33,-80 11,-22 16,-31 36,-47 17,-13 60,-23 70,-42 11,-18 -13,-36 -14,-56 0,-17 14,-32 13,-48 0,-13 -9,-25 -18,-36 -8,-9 -29,-10 -32,-22 -7,-25 23,-59 4,-79 z"
             id="path142"
             inkscape:connector-curvature="0"
             style="fill:#00a859" />
          <path
             class="fil12"
             d="m 11109,6244 c -1,27 18,52 25,78 2,11 -9,29 3,34 10,5 7,-19 9,-28 5,-39 -10,-82 10,-116 18,-30 76,-30 94,-61 9,-16 -30,-28 -34,-46 -3,-17 26,-33 11,-44 -15,-10 -45,9 -58,20 -19,17 -26,39 -36,60 -15,34 -24,66 -24,103 z"
             id="path144"
             inkscape:connector-curvature="0"
             style="fill:#00a859" />
        </g>
        <g
           id="g146">
          <path
             class="fil7 str0"
             d="m 11139,6762 c 36,-41 57,-70 78,-122 8,-18 -2,-42 -1,-63 0,-13 2,-25 4,-38 2,-26 -4,-55 7,-77 15,-31 48,-46 66,-74 9,-15 -2,-43 12,-53 16,-11 45,17 58,3 33,-36 26,-107 64,-137 24,-20 65,21 93,9 33,-12 45,-59 77,-76 20,-10 47,7 69,2 37,-9 67,-51 106,-43 23,4 14,59 36,69 22,10 41,-26 64,-23 12,1 7,32 19,35 41,11 107,-38 127,4 21,45 -51,80 -67,125 -4,11 13,26 7,36 -13,26 -52,31 -56,60 -4,26 42,45 36,70 -9,39 -47,61 -73,88 -12,13 -34,15 -40,32 -5,15 20,38 10,49 -24,26 -68,19 -95,41 -24,21 -24,70 -52,85 -24,13 -56,-18 -82,-12 -26,7 -39,39 -63,49 -26,11 -60,0 -85,14 -21,12 -22,54 -45,58 -21,4 -37,-28 -55,-41 -22,-18 -41,-46 -67,-52 -30,-7 -60,8 -89,15 -31,7 -60,28 -92,26 -12,0 -26,-22 -20,-33 7,-12 40,-15 49,-26 z"
             id="path148"
             inkscape:connector-curvature="0"
             style="fill:#000000;stroke:#373435;stroke-width:7.61999989" />
          <path
             class="fil12"
             d="m 11988,6193 c -67,58 -197,109 -270,156 -36,23 -72,43 -107,68 -22,15 -41,47 -67,43 -14,-2 -5,-15 -2,-28 8,-29 33,-74 45,-103 13,-36 36,-76 42,-115 2,-14 -5,-29 -11,-41 -4,-7 -11,-13 -6,-19 16,-18 47,19 70,13 31,-7 50,-57 83,-51 24,5 9,63 32,73 24,11 44,-28 69,-28 11,0 11,27 22,30 33,8 125,-20 100,2 z"
             id="path150"
             inkscape:connector-curvature="0"
             style="fill:#00a859" />
          <path
             class="fil12"
             d="m 11509,6487 c 19,-24 18,-65 29,-94 21,-62 57,-102 74,-166 4,-18 -2,-70 -19,-69 -28,3 -32,52 -57,63 -27,11 -73,-28 -88,-2 -6,10 9,18 12,30 7,25 11,57 11,83 1,47 -5,94 -20,138 -12,37 -95,89 -58,100 17,5 32,-8 48,-18 25,-18 49,-41 68,-65 z"
             id="path152"
             inkscape:connector-curvature="0"
             style="fill:#00a859" />
          <path
             class="fil12"
             d="m 11427,6220 c 12,-2 15,22 19,35 8,26 12,56 6,83 -8,41 -5,86 -19,125 -10,28 -42,46 -55,72 -8,17 1,43 -12,55 -26,26 -63,35 -88,62 -21,23 -45,53 -87,67 -27,9 43,-43 51,-73 5,-22 -13,-46 -13,-69 0,-33 3,-66 11,-97 4,-13 15,-23 25,-32 11,-9 29,-9 37,-21 12,-18 3,-50 18,-64 15,-15 47,5 60,-12 28,-35 4,-123 47,-131 z"
             id="path154"
             inkscape:connector-curvature="0"
             style="fill:#00a859" />
          <path
             class="fil12"
             d="m 11952,6249 c -27,6 -50,22 -73,35 -38,22 -75,46 -113,71 -60,39 -117,52 -168,103 -25,25 55,-4 89,4 33,8 60,36 88,57 13,11 18,35 34,38 19,4 39,-6 53,-19 21,-20 45,-44 49,-75 2,-24 -34,-42 -33,-67 1,-22 30,-29 39,-48 5,-9 -4,-23 0,-33 8,-24 58,-71 35,-66 z"
             id="path156"
             inkscape:connector-curvature="0"
             style="fill:#00a859" />
          <path
             class="fil12"
             d="m 11813,6621 c 13,-25 -22,-58 -43,-78 -25,-25 -56,-45 -88,-52 -45,-10 -94,-14 -136,2 -33,12 -49,38 -77,61 -17,14 -50,30 -66,42 -46,33 -71,37 -122,82 -30,27 69,3 110,8 31,3 44,5 71,24 24,15 54,63 80,67 26,5 37,-31 62,-40 20,-7 44,4 63,-4 16,-6 27,-22 36,-37 8,-14 0,-39 13,-48 28,-19 81,5 97,-27 z"
             id="path158"
             inkscape:connector-curvature="0"
             style="fill:#00a859" />
          <path
             class="fil12"
             d="m 11238,6717 c -33,10 -55,43 -85,62 -12,8 -38,2 -40,18 -1,14 26,2 39,-1 48,-9 94,-45 144,-35 44,9 67,80 111,88 24,4 22,-48 42,-59 19,-11 50,17 57,-6 7,-22 -28,-50 -48,-61 -27,-16 -56,-16 -86,-19 -47,-4 -90,-1 -134,13 z"
             id="path160"
             inkscape:connector-curvature="0"
             style="fill:#00a859" />
        </g>
        <ellipse
           class="fil7"
           cx="11153"
           cy="6410"
           rx="123"
           ry="129"
           id="ellipse162"
           style="fill:#373435" />
        <ellipse
           class="fil13"
           cx="11153"
           cy="6410"
           rx="107"
           ry="112"
           id="ellipse164"
           style="fill:#ed3237" />
        <ellipse
           class="fil14"
           cx="11168"
           cy="6370"
           rx="46"
           ry="48"
           id="ellipse166"
           style="fill:#f6997e" />
        <ellipse
           class="fil7"
           cx="10939"
           cy="6783"
           rx="123"
           ry="129"
           id="ellipse168"
           style="fill:#373435" />
        <ellipse
           class="fil13"
           cx="10939"
           cy="6783"
           rx="107"
           ry="112"
           id="ellipse170"
           style="fill:#ed3237" />
        <ellipse
           class="fil14"
           cx="10955"
           cy="6744"
           rx="46"
           ry="48"
           id="ellipse172"
           style="fill:#f6997e" />
        <ellipse
           class="fil7"
           cx="11138"
           cy="6752"
           rx="123"
           ry="129"
           id="ellipse174"
           style="fill:#373435" />
        <ellipse
           class="fil13"
           cx="11138"
           cy="6752"
           rx="107"
           ry="112"
           id="ellipse176"
           style="fill:#ed3237" />
        <ellipse
           class="fil14"
           cx="11153"
           cy="6713"
           rx="46"
           ry="48"
           id="ellipse178"
           style="fill:#f6997e" />
        <ellipse
           class="fil7"
           cx="10918"
           cy="7663"
           rx="123"
           ry="129"
           id="ellipse180"
           style="fill:#373435" />
        <ellipse
           class="fil13"
           cx="10918"
           cy="7663"
           rx="107"
           ry="112"
           id="ellipse182"
           style="fill:#ed3237" />
        <ellipse
           class="fil14"
           cx="10933"
           cy="7624"
           rx="46"
           ry="48"
           id="ellipse184"
           style="fill:#f6997e" />
        <ellipse
           class="fil7"
           cx="11072"
           cy="7562"
           rx="123"
           ry="129"
           id="ellipse186"
           style="fill:#373435" />
        <ellipse
           class="fil13"
           cx="11072"
           cy="7562"
           rx="107"
           ry="112"
           id="ellipse188"
           style="fill:#ed3237" />
        <ellipse
           class="fil14"
           cx="11088"
           cy="7523"
           rx="46"
           ry="48"
           id="ellipse190"
           style="fill:#f6997e" />
        <g
           id="g192">
          <ellipse
             class="fil7"
             cx="11079"
             cy="7750"
             rx="123"
             ry="129"
             id="ellipse194"
             style="fill:#373435" />
          <ellipse
             class="fil13"
             cx="11079"
             cy="7750"
             rx="107"
             ry="112"
             id="ellipse196"
             style="fill:#ed3237" />
          <ellipse
             class="fil14"
             cx="11094"
             cy="7710"
             rx="46"
             ry="48"
             id="ellipse198"
             style="fill:#f6997e" />
        </g>
        <ellipse
           class="fil7"
           cx="11256"
           cy="8403"
           rx="123"
           ry="129"
           id="ellipse200"
           style="fill:#373435" />
        <ellipse
           class="fil13"
           cx="11256"
           cy="8403"
           rx="107"
           ry="112"
           id="ellipse202"
           style="fill:#ed3237" />
        <ellipse
           class="fil14"
           cx="11271"
           cy="8363"
           rx="46"
           ry="48"
           id="ellipse204"
           style="fill:#f6997e" />
        <ellipse
           class="fil7"
           cx="11102"
           cy="8266"
           rx="123"
           ry="129"
           id="ellipse206"
           style="fill:#373435" />
        <ellipse
           class="fil13"
           cx="11102"
           cy="8266"
           rx="107"
           ry="112"
           id="ellipse208"
           style="fill:#ed3237" />
        <ellipse
           class="fil14"
           cx="11118"
           cy="8227"
           rx="46"
           ry="48"
           id="ellipse210"
           style="fill:#f6997e" />
        <ellipse
           class="fil7"
           cx="10813"
           cy="8784"
           rx="123"
           ry="129"
           id="ellipse212"
           style="fill:#373435" />
        <ellipse
           class="fil13"
           cx="10813"
           cy="8784"
           rx="107"
           ry="112"
           id="ellipse214"
           style="fill:#ed3237" />
        <ellipse
           class="fil14"
           cx="10828"
           cy="8745"
           rx="46"
           ry="48"
           id="ellipse216"
           style="fill:#f6997e" />
        <ellipse
           class="fil7"
           cx="11016"
           cy="8952"
           rx="123"
           ry="129"
           id="ellipse218"
           style="fill:#373435" />
        <ellipse
           class="fil13"
           cx="11016"
           cy="8952"
           rx="107"
           ry="112"
           id="ellipse220"
           style="fill:#ed3237" />
        <ellipse
           class="fil14"
           cx="11031"
           cy="8913"
           rx="46"
           ry="48"
           id="ellipse222"
           style="fill:#f6997e" />
        <ellipse
           class="fil7"
           cx="11011"
           cy="8754"
           rx="123"
           ry="129"
           id="ellipse224"
           style="fill:#373435" />
        <ellipse
           class="fil13"
           cx="11011"
           cy="8754"
           rx="107"
           ry="112"
           id="ellipse226"
           style="fill:#ed3237" />
        <ellipse
           class="fil14"
           cx="11027"
           cy="8715"
           rx="46"
           ry="48"
           id="ellipse228"
           style="fill:#f6997e" />
      </g>
      <path
         class="fil15"
         d="m 323.69312,59.539226 c 0.98268,5.02677 -2.72126,13.68189 -5.82047,15.38268 -0.94488,-7.1811 -4.30866,-12.0567 -8.57953,-18.06615 l -2.3433,8.12599 c -1.24725,-4.0063 -2.68347,-7.89921 -5.14016,-11.37638 l -1.85197,5.85827 c -0.45355,-5.51811 -1.51181,-10.31811 -5.55591,-14.09764 l -2.19212,9.41102 c -2.57008,-5.70708 -1.92756,-8.8063 -7.89922,-11.9811 0.22677,7.2189 1.20945,14.4 2.57008,21.50551 0.71811,3.93071 0.75591,4.0819 2.26772,7.40788 2.15433,4.8 1.13386,2.19213 3.40157,5.82047 l 2.72126,4.8378 3.85512,3.28819 2.98583,3.09921 3.9685,2.4189 3.55276,4.98898 c 2.64567,2.98582 2.00315,0.37795 2.72126,4.837794 l 0.41575,2.72126 -1.70079,10.24252 c -0.18898,4.30867 1.17165,7.06772 4.57323,9.52441 1.54961,-3.25039 3.02362,-6.57637 4.61102,-9.82677 0.15118,-0.26456 0.34016,-0.60472 0.64252,-0.71811 1.73859,-0.56693 3.96851,-1.32283 5.70709,-1.92756 l 4.68662,-2.45669 c 2.79685,-0.94488 4.7622,-1.32284 10.01574,-2.98583 5.29134,-1.70079 11.11182,-7.445674 15.15591,-11.262994 7.78583,-7.37008 6.50079,-7.55906 12.09449,-14.66457 3.47717,-4.19528 6.16063,-8.23937 7.55906,-13.68189 l 1.85197,-11.07402 c -1.28504,1.73858 -5.06457,8.12599 -8.76851,9.78898 l -5.06457,4.57323 c 1.09607,-6.53859 1.24725,-5.29134 1.24725,-11.82993 -1.92756,2.57008 -3.17481,5.6315 -5.10236,8.20158 -3.93071,5.10236 -8.50394,9.6378 -13.45512,14.28662 l -6.4252,5.5937 c 0,-6.80315 0.60472,-9.03307 1.70079,-15.68504 0.86929,-3.36378 2.83464,-8.91969 3.25039,-14.21103 l 1.02047,-11.26299 -7.82362,9.25984 -4.57323,7.10551 c -0.34016,-2.87244 -1.09606,-5.36693 -2.26772,-7.37008 0.0378,2.11654 -0.26456,4.11969 -1.02047,5.97166 -1.73858,-1.28504 -1.17165,-0.98268 -1.88976,-2.91024 -0.64252,-2.60787 -1.43622,-5.10236 -2.07874,-7.71024 -1.13386,-3.28819 -3.2504,-6.3496 -4.98898,-9.29763 -0.52913,3.09921 -1.77638,6.12283 -1.81417,9.33543 0.0756,0.8315 4.27086,8.27717 3.77952,10.80945 z"
         id="path230"
         inkscape:connector-curvature="0"
         style="clip-rule:evenodd;fill:#fefefe;fill-rule:evenodd;stroke-width:0.03779528;image-rendering:optimizeQuality;shape-rendering:geometricPrecision;text-rendering:geometricPrecision" />
      <path
         class="fil0"
         d="m 207.85059,248.28886 c 11.82992,12.58583 25.02048,24.71811 36.88819,37.30394 -12.92598,35.18741 13.11497,45.42993 0.94489,73.7008 -9.56221,19.61575 -30.80316,12.8126 -47.31969,34.05354 H 135.81279 L 174.66634,354.4936 68.537193,248.36445 Z"
         id="path232"
         inkscape:connector-curvature="0"
         style="clip-rule:evenodd;fill:#0098da;fill-rule:evenodd;stroke-width:0.03779528;image-rendering:optimizeQuality;shape-rendering:geometricPrecision;text-rendering:geometricPrecision" />
      <polygon
         class="fil0"
         points="15887,7331 18558,10003 15887,12674 "
         id="polygon234"
         style="clip-rule:evenodd;fill:#0098da;fill-rule:evenodd;image-rendering:optimizeQuality;shape-rendering:geometricPrecision;text-rendering:geometricPrecision"
         transform="matrix(0.03779528,0,0,0.03779528,-94.851797,-58.608824)" />
      <path
         class="fil0"
         d="M 415.57345,248.28886 H 520.15299 V 393.34714 H 410.81124 c -4.95118,-3.9307 -10.05354,-8.39055 -15.68504,-9.41102 -6.16063,-1.09606 -11.11181,-4.45984 -12.66142,-6.76536 -2.04094,-3.06141 -3.9307,-3.51496 -4.08189,-8.0126 -0.37795,-10.01574 -0.71811,-23.88661 -0.18897,-32.61732 0.49134,-7.37008 4.34646,-8.35276 4.72441,-15.76063 0.18897,-3.40158 -4.15748,-6.00945 -3.28819,-9.29764 1.20945,-4.76221 5.70709,-11.90552 4.23307,-16.70552 -0.52913,-1.70078 -2.98583,-1.36063 -4.19528,-2.45669 -2.00315,-1.73858 -2.11653,-5.93386 1.17166,-9.25984 z"
         id="path236"
         inkscape:connector-curvature="0"
         style="clip-rule:evenodd;fill:#0098da;fill-rule:evenodd;stroke-width:0.03779528;image-rendering:optimizeQuality;shape-rendering:geometricPrecision;text-rendering:geometricPrecision" />
      <polygon
         class="fil0"
         points="4333,8384 6873,10924 4333,13465 "
         id="polygon238"
         style="clip-rule:evenodd;fill:#0098da;fill-rule:evenodd;image-rendering:optimizeQuality;shape-rendering:geometricPrecision;text-rendering:geometricPrecision"
         transform="matrix(0.03779528,0,0,0.03779528,-94.851797,-58.608824)" />
      <path
         class="fil16"
         d="M 119.37184,487.94873 V 408.9188 h 13.03937 v 31.10551 h 25.663 V 408.9188 h 13.11496 v 79.02993 h -13.11496 v -34.54489 h -25.663 v 34.54489 z m 62.70237,-39.04252 c 0,-9.41103 1.36063,-17.15906 4.15748,-23.2441 2.79685,-6.08504 6.4252,-10.62048 10.92284,-13.6063 4.49763,-2.98583 9.94016,-4.45985 16.32756,-4.45985 9.29764,0 16.8189,3.51497 22.67717,10.62048 5.82047,7.06772 8.7685,17.15906 8.7685,30.23622 0,13.19056 -3.09921,23.54646 -9.29764,30.99213 -5.40472,6.57638 -12.7748,9.82677 -22.07244,9.82677 -9.41103,0 -16.78111,-3.25039 -22.22363,-9.75118 -6.16063,-7.40787 -9.25984,-17.6126 -9.25984,-30.61417 z m 13.45512,-0.52914 c 0,9.10866 1.73858,15.91181 5.17795,20.44725 3.43937,4.53543 7.71024,6.84094 12.8504,6.84094 5.10236,0 9.37323,-2.26771 12.73701,-6.76535 3.40157,-4.53543 5.06457,-11.45197 5.06457,-20.78741 0,-9.14645 -1.6252,-15.91181 -4.91339,-20.33386 -3.28819,-4.38425 -7.59685,-6.57637 -12.88819,-6.57637 -5.32914,0 -9.67559,2.22992 -13.00158,6.65196 -3.36378,4.42205 -5.02677,11.263 -5.02677,20.52284 z m 56.27717,13.87087 12.77481,-1.54961 c 1.43622,10.12914 6.16063,15.19371 14.13543,15.19371 3.93071,0 7.02992,-1.05827 9.29764,-3.13701 2.26772,-2.04095 3.40157,-4.61103 3.40157,-7.67244 0,-1.77638 -0.37795,-3.32599 -1.17165,-4.57323 -0.7937,-1.24725 -2.00315,-2.30552 -3.62835,-3.09922 -1.62519,-0.83149 -5.51811,-2.15433 -11.71653,-4.08189 -5.5937,-1.66299 -9.67559,-3.51496 -12.24567,-5.48031 -2.60788,-1.96536 -4.64882,-4.57323 -6.19843,-7.78583 -1.51181,-3.2126 -2.26772,-6.68976 -2.26772,-10.3937 0,-4.30866 0.98268,-8.16378 2.91024,-11.64095 1.96536,-3.43937 4.68662,-6.04724 8.12599,-7.82362 3.43937,-1.73858 7.71023,-2.60788 12.7748,-2.60788 7.63465,0 13.56851,2.04095 17.83937,6.19843 4.27087,4.11969 6.53859,10.05355 6.80315,17.72599 l -13.11496,0.68031 c -0.56693,-4.23307 -1.81417,-7.1811 -3.70394,-8.88189 -1.88976,-1.66299 -4.64882,-2.53228 -8.12598,-2.53228 -3.51496,0 -6.27402,0.7559 -8.16378,2.22992 -1.88977,1.47401 -2.87244,3.28819 -2.87244,5.48031 0,2.15434 0.86929,3.96851 2.60787,5.44252 1.73858,1.47402 5.70709,3.09922 11.90551,4.8378 6.57638,1.92756 11.33859,3.93071 14.24882,6.00945 2.94804,2.11654 5.17796,4.8378 6.72756,8.16378 1.54961,3.32599 2.30552,7.33229 2.30552,12.09449 0,6.84095 -2.11654,12.62362 -6.31182,17.27244 -4.23307,4.68662 -10.84724,7.02993 -19.80472,7.02993 -15.91181,0 -24.75591,-9.03308 -26.53229,-27.09922 z m 122.07876,25.70079 h -14.21103 l -5.66929,-17.95276 h -25.88977 l -5.32913,17.95276 h -13.90867 l 25.20946,-79.02993 h 13.87086 z m -24.0756,-31.2567 -8.91968,-29.32913 -8.76851,29.32913 z m 31.14331,31.2567 V 408.9188 h 12.73701 l 26.49449,52.76221 V 408.9188 h 12.17008 v 79.02993 H 419.2018 l -26.07875,-51.55276 v 51.55276 z m 123.59057,0 h -14.21103 l -5.66929,-17.95276 h -25.88977 l -5.32913,17.95276 h -13.90866 l 25.20945,-79.02993 h 13.87087 z m -24.07559,-31.2567 -8.91969,-29.32913 -8.76851,29.32913 z"
         id="path240"
         inkscape:connector-curvature="0"
         style="clip-rule:evenodd;fill:#000000;fill-rule:nonzero;stroke-width:0.03779528;image-rendering:optimizeQuality;shape-rendering:geometricPrecision;text-rendering:geometricPrecision" />
      <path
         class="fil16"
         d="m 377.43801,539.57708 3.32599,-0.37795 c 0.37795,2.60787 1.5874,3.93071 3.66614,3.93071 1.02047,0 1.85197,-0.26457 2.4189,-0.7937 0.60472,-0.52914 0.90708,-1.20945 0.90708,-2.00315 0,-0.45355 -0.11338,-0.86929 -0.34015,-1.20945 -0.18898,-0.30236 -0.49134,-0.56693 -0.90709,-0.7937 -0.45354,-0.22677 -1.43622,-0.56693 -3.06142,-1.05827 -1.47401,-0.45354 -2.53228,-0.90709 -3.1748,-1.43622 -0.68032,-0.49134 -1.20945,-1.17165 -1.6252,-2.00315 -0.37795,-0.8315 -0.60472,-1.73858 -0.60472,-2.72126 0,-1.09606 0.26456,-2.11654 0.7559,-3.02362 0.52914,-0.90709 1.24725,-1.5874 2.11654,-2.04095 0.90708,-0.45354 2.00315,-0.68031 3.32598,-0.68031 2.00315,0 3.55276,0.52913 4.64882,1.62519 1.09607,1.05827 1.70079,2.60788 1.77638,4.61103 l -3.40157,0.18897 c -0.15119,-1.13385 -0.49134,-1.88976 -0.98268,-2.3433 -0.49134,-0.41575 -1.20945,-0.64252 -2.11654,-0.64252 -0.90708,0 -1.62519,0.18897 -2.11653,0.56693 -0.49134,0.37795 -0.75591,0.86929 -0.75591,1.43622 0,0.56693 0.22677,1.02047 0.68032,1.43622 0.45354,0.37795 1.47401,0.7937 3.09921,1.24724 1.70079,0.49134 2.94803,1.02047 3.70394,1.54961 0.7559,0.56693 1.36063,1.28504 1.73858,2.11653 0.41575,0.8693 0.60472,1.92756 0.60472,3.17481 0,1.77638 -0.52913,3.25039 -1.62519,4.49764 -1.09607,1.20945 -2.83465,1.81417 -5.17796,1.81417 -4.11968,0 -6.42519,-2.34331 -6.87874,-7.06772 z m 16.55433,6.68977 v -20.56064 h 12.51024 v 3.47717 h -9.10866 v 4.57323 h 8.46614 v 3.47717 h -8.46614 v 5.5937 h 9.41102 v 3.43937 z m 15.64725,0 v -20.56064 h 5.10236 l 3.06142,14.02205 3.02362,-14.02205 h 5.10237 v 20.56064 h -3.17481 v -16.17638 l -3.32598,16.17638 h -3.28819 l -3.32599,-16.17638 v 16.17638 z m 19.57796,0 v -20.56064 h 3.36378 v 20.56064 z m 6.68976,0 v -20.56064 h 3.28819 l 6.91654,13.75749 v -13.75749 h 3.137 v 20.56064 h -3.40157 l -6.80315,-13.37953 v 13.37953 z m 32.12599,0 h -3.70394 l -1.47401,-4.64882 h -6.72756 l -1.36063,4.64882 h -3.62835 l 6.53858,-20.56064 h 3.62835 z m -6.27402,-8.12599 -2.30551,-7.63464 -2.26772,7.63464 z m -3.93071,-13.79528 1.5874,-4.19527 h 3.62835 l -3.1748,4.19527 z m 12.0189,21.92127 v -20.56064 h 7.18111 c 1.81417,0 3.137,0.18898 3.89291,0.56693 0.7937,0.37796 1.43622,1.02048 1.96535,1.92756 0.49134,0.90709 0.75591,2.00315 0.75591,3.28819 0,1.5874 -0.41575,2.87244 -1.17165,3.85512 -0.75591,0.98268 -1.85197,1.6252 -3.28819,1.85197 0.71811,0.52913 1.32283,1.09606 1.81417,1.73858 0.45354,0.60473 1.13386,1.73859 1.92756,3.32599 l 2.07874,4.0063 h -4.08189 L 478.4648,541.807 c -0.8693,-1.62519 -1.47402,-2.64567 -1.81418,-3.02362 -0.30236,-0.41575 -0.64252,-0.71811 -0.98268,-0.86929 -0.37795,-0.15118 -0.94488,-0.22677 -1.73858,-0.22677 h -0.68031 v 8.57953 z m 3.40158,-11.86772 h 2.53228 c 1.51181,0 2.49449,-0.0378 2.91024,-0.18898 0.45354,-0.11338 0.7937,-0.41575 1.05827,-0.83149 0.22677,-0.37796 0.37795,-0.94489 0.37795,-1.6252 0,-0.64252 -0.15118,-1.17165 -0.37795,-1.5874 -0.26457,-0.37796 -0.64252,-0.68032 -1.09607,-0.7937 -0.30236,-0.11339 -1.20945,-0.18898 -2.75905,-0.18898 h -2.64567 z m 13.49291,11.86772 v -20.56064 h 3.36378 v 20.56064 z m 5.97166,-10.12914 c 0,-2.45669 0.34015,-4.45984 1.05826,-6.04724 0.71811,-1.5874 1.70079,-2.79685 2.83465,-3.55276 1.17165,-0.7937 2.60787,-1.17165 4.27087,-1.17165 2.41889,0 4.38425,0.94488 5.89606,2.75905 1.51181,1.85197 2.26772,4.45985 2.26772,7.86142 0,3.43937 -0.7937,6.12284 -2.4189,8.08819 -1.39843,1.70079 -3.32599,2.53228 -5.74488,2.53228 -2.4189,0 -4.34646,-0.83149 -5.78268,-2.53228 -1.5874,-1.92756 -2.3811,-4.57323 -2.3811,-7.93701 z m 3.47716,-0.15118 c 0,2.3811 0.45355,4.11969 1.36063,5.32914 0.90709,1.17165 2.00315,1.77637 3.32599,1.77637 1.36063,0 2.45669,-0.60472 3.32598,-1.77637 0.86929,-1.17166 1.32284,-2.98583 1.32284,-5.40473 0,-2.3811 -0.41575,-4.15748 -1.28504,-5.29134 -0.86929,-1.13386 -1.96536,-1.70079 -3.36378,-1.70079 -1.36063,0 -2.49449,0.56693 -3.36378,1.73859 -0.86929,1.13385 -1.32284,2.91023 -1.32284,5.32913 z"
         id="path242"
         inkscape:connector-curvature="0"
         style="clip-rule:evenodd;fill:#000000;fill-rule:nonzero;stroke-width:0.03779528;image-rendering:optimizeQuality;shape-rendering:geometricPrecision;text-rendering:geometricPrecision" />
      <path
         class="fil16"
         d="m 133.62066,520.30149 c 2.26772,0 4.42205,0.56693 6.50079,1.70079 2.07874,1.13386 3.70394,2.75905 4.87559,4.87559 1.20945,2.07874 1.77638,4.30866 1.77638,6.61417 0,2.26772 -0.56693,4.45985 -1.73858,6.53859 -1.17166,2.07874 -2.75906,3.70393 -4.8756,4.87559 -2.04094,1.13386 -4.23307,1.73858 -6.53858,1.73858 -2.30551,0 -4.45984,-0.60472 -6.53858,-1.73858 -2.07874,-1.17166 -3.70394,-2.79685 -4.87559,-4.87559 -1.17166,-2.07874 -1.73859,-4.27087 -1.73859,-6.53859 0,-2.30551 0.60473,-4.53543 1.77638,-6.61417 1.17166,-2.11654 2.79685,-3.74173 4.87559,-4.87559 2.07874,-1.13386 4.23307,-1.70079 6.50079,-1.70079 z m 0,2.60787 c -1.81417,0 -3.55276,0.45355 -5.21575,1.36063 -1.66299,0.90709 -2.98582,2.19213 -3.93071,3.89292 -0.94488,1.70079 -1.43622,3.47716 -1.43622,5.32913 0,1.81418 0.49134,3.59055 1.43622,5.25355 0.90709,1.66299 2.22992,2.94803 3.89292,3.89291 1.66299,0.94488 3.43937,1.39843 5.25354,1.39843 1.85197,0 3.59055,-0.45355 5.25354,-1.39843 1.663,-0.94488 2.98583,-2.22992 3.93071,-3.89291 0.90709,-1.663 1.39843,-3.43937 1.39843,-5.25355 0,-1.85197 -0.49134,-3.62834 -1.43622,-5.32913 -0.94488,-1.70079 -2.26772,-2.98583 -3.93071,-3.89292 -1.66299,-0.90708 -3.40158,-1.36063 -5.21575,-1.36063 z m 3.2126,12.51024 2.75906,0.94488 c -0.45355,1.43622 -1.17166,2.53229 -2.15434,3.32599 -1.02047,0.7559 -2.22992,1.13386 -3.62834,1.13386 -1.96536,0 -3.55276,-0.64252 -4.8,-1.92756 -1.20945,-1.28504 -1.85197,-3.02362 -1.85197,-5.29134 0,-1.47402 0.26457,-2.79685 0.83149,-3.96851 0.56693,-1.13385 1.36063,-2.00315 2.38111,-2.57008 1.02047,-0.60472 2.19212,-0.86929 3.47716,-0.86929 1.39843,0 2.57008,0.34016 3.51496,1.02048 0.94489,0.64252 1.70079,1.70078 2.22993,3.137 l -2.79686,0.68032 c -0.30236,-0.8315 -0.71811,-1.47402 -1.24724,-1.85197 -0.49134,-0.37795 -1.09606,-0.56693 -1.81417,-0.56693 -1.02048,0 -1.88977,0.41575 -2.53229,1.20945 -0.68031,0.75591 -1.02047,2.00315 -1.02047,3.66614 0,1.66299 0.34016,2.91024 0.98268,3.70394 0.64252,0.7937 1.43622,1.17165 2.34331,1.17165 0.7937,0 1.43622,-0.22677 2.00314,-0.68031 0.56693,-0.45354 0.98268,-1.20945 1.32284,-2.26772 z"
         id="path244"
         inkscape:connector-curvature="0"
         style="clip-rule:evenodd;fill:#000000;fill-rule:nonzero;stroke-width:0.03779528;image-rendering:optimizeQuality;shape-rendering:geometricPrecision;text-rendering:geometricPrecision" />
      <path
         class="fil3"
         d="m 251.42855,573.63063 c 0.60472,0.11339 1.09606,0.26457 1.47401,0.34016 1.73859,0.49134 2.98583,1.09606 3.81733,1.81417 0.98268,0.8315 1.66299,2.04095 2.00315,3.66614 0.30236,1.36063 0.30236,2.60788 -0.0378,3.70394 -0.94488,3.36378 -3.62834,6.46299 -8.05039,9.25984 -3.47717,2.19213 -7.14331,3.93071 -10.96063,5.17796 -4.8378,1.5496 -8.76851,1.88976 -11.90552,0.98267 -1.39842,-0.37795 -2.41889,-1.09606 -3.02362,-2.19212 -0.64252,-1.05827 -0.7937,-2.30551 -0.37795,-3.70394 0.22677,-0.8315 0.60472,-1.66299 1.05827,-2.4189 l -6.65197,4.11969 c -0.49134,0.34016 -0.94489,0.41575 -1.28504,0.34016 -0.64252,-0.18898 -0.86929,-0.56693 -0.71811,-1.13386 0.0378,-0.22677 0.22677,-0.45355 0.49134,-0.7937 0.7559,-0.86929 5.14015,-3.74174 13.11496,-8.65512 l 14.77795,-9.07087 c -2.91023,-0.30236 -5.44252,-0.34016 -7.52126,-0.15118 -2.07874,0.18898 -3.40157,0.22677 -3.89291,0.0756 -0.68032,-0.18898 -0.94488,-0.49134 -0.8315,-0.94488 0.11339,-0.37795 1.70079,-0.71811 4.72441,-0.98268 3.06142,-0.30236 6.68977,-0.22677 10.92284,0.18898 l 1.5874,-0.8315 c 0.7937,-0.37795 1.32283,-0.56693 1.51181,-0.49134 0.41575,0.11339 0.52913,0.41575 0.37795,0.94488 -0.0378,0.15119 -0.26456,0.41575 -0.60472,0.75591 z m -2.26772,1.88976 -18.93543,11.67875 c -1.54961,0.98267 -2.57008,1.70078 -3.06142,2.11653 -0.8315,0.8315 -1.43622,1.88976 -1.81417,3.2126 -0.52914,1.96535 0.26456,3.28819 2.3811,3.89291 2.49449,0.68032 6.04724,0.30237 10.62047,-1.13385 4.42205,-1.39843 8.46614,-3.36378 12.09449,-5.85827 3.96851,-2.72126 6.31181,-5.32914 7.02992,-7.86142 0.71811,-2.57008 -0.52913,-4.30866 -3.70393,-5.21575 -1.43622,-0.37795 -2.94804,-0.68032 -4.61103,-0.8315 z m 1.13386,23.77323 c -0.7937,0 -2.34331,0.41575 -4.64882,1.17166 -2.04094,0.68031 -3.55276,0.90709 -4.49764,0.71811 -0.15118,-0.0378 -0.22677,-0.15118 -0.18897,-0.34016 0.0378,-0.26457 0.26456,-0.41575 0.68031,-0.37795 0.94488,0.0378 2.34331,-0.26457 4.23307,-0.86929 2.04095,-0.68032 3.66614,-1.02048 4.87559,-1.05827 1.02048,-1.51181 2.79685,-2.98583 5.36693,-4.34646 2.68347,-1.47401 4.8378,-2.07874 6.463,-1.73858 1.20945,0.26457 1.70078,0.90709 1.47401,1.92756 -0.26456,1.32283 -1.85197,2.49449 -4.68661,3.55275 -2.11654,0.79371 -4.19528,1.28504 -6.27402,1.54961 -0.34016,0.45354 -0.52913,0.90709 -0.64252,1.43622 -0.15118,0.7937 0,1.36063 0.49134,1.70079 0.26457,0.15118 0.75591,0.34016 1.47402,0.52913 0.56693,0.11339 0.7937,0.30237 0.7559,0.56693 -0.0756,0.37796 -1.05827,0.34016 -2.91024,-0.0378 -1.92755,-0.41575 -2.72126,-1.43622 -2.3811,-3.13701 0.0756,-0.37795 0.22677,-0.7937 0.41575,-1.24725 z m 3.25039,-0.64251 c 1.51182,-0.37796 3.13701,-1.02048 4.91339,-1.85197 2.34331,-1.05827 3.62835,-2.04095 3.81732,-2.94804 0.0756,-0.37795 -0.0378,-0.56692 -0.37795,-0.64252 -0.98268,-0.18897 -2.49449,0.41575 -4.53543,1.88977 -1.85197,1.28504 -3.13701,2.49449 -3.81733,3.55276 z m 9.07087,2.83464 c -3.55275,2.07874 -6.16063,3.02362 -7.78583,2.75906 -0.18897,-0.0378 -0.26456,-0.11339 -0.22677,-0.30237 0.0378,-0.26456 0.22677,-0.41574 0.52914,-0.45354 0.60472,-0.0756 1.51181,-0.22677 2.72126,-0.52913 1.17165,-0.41575 4.30866,-2.11654 9.29764,-5.14016 4.7622,-2.87244 7.21889,-4.30866 7.33228,-4.27087 0.34016,0.0378 0.64252,0.26457 0.94488,0.60473 0.30236,0.37795 0.41575,0.71811 0.37795,1.05826 -0.18897,1.09607 -1.36063,2.91024 -3.51496,5.44252 -1.85197,2.15434 -3.43937,3.77953 -4.7622,4.80001 0.68031,0.0756 0.98268,0.26456 0.94488,0.49133 -0.0378,0.30237 -0.41575,0.41575 -1.02047,0.30237 -0.18898,0 -0.41575,-0.0756 -0.71811,-0.18898 -0.34016,-0.11339 -0.56693,-0.18898 -0.75591,-0.18898 -0.11338,-0.0378 -0.30236,-0.0378 -0.52913,-0.0378 -0.26457,0 -0.45355,0 -0.56693,0 -1.92756,-0.30236 -2.68347,-1.73858 -2.26772,-4.34646 z m 3.28819,2.53228 c 1.20945,-0.71811 2.60788,-2.07874 4.19528,-4.00629 1.47401,-1.81418 2.57008,-3.43938 3.28819,-4.91339 l -9.14646,5.36693 c 0.56693,0.15118 0.94488,0.68031 1.20945,1.51181 z m -0.7559,0.60473 -0.37796,-1.92756 c -0.18897,-0.90709 -0.45354,-1.39843 -0.7559,-1.43622 -0.34016,-0.0756 -0.52914,0.15118 -0.64252,0.68031 -0.0756,0.52914 0,1.05827 0.22677,1.663 0.26457,0.68031 0.60472,1.05826 1.09606,1.13386 0.15118,0 0.30236,-0.0378 0.45355,-0.11339 z m 12.737,-2.34331 -4.64881,2.87244 c -2.26772,1.20945 -4.0063,1.77638 -5.17796,1.663 -0.18897,0 -0.26457,-0.11339 -0.22677,-0.30237 0,-0.26456 0.18898,-0.41574 0.49134,-0.49134 1.20945,-0.15118 2.30551,-0.49133 3.32598,-0.98267 1.54961,-0.68032 3.74174,-2.04095 6.57638,-4.08189 2.83465,-2.00315 5.02677,-3.36378 6.50079,-4.08189 1.09606,-0.49134 2.00315,-0.68032 2.83465,-0.60473 1.36063,0.15118 2.00315,0.75591 1.92756,1.88977 2.60787,-2.64567 5.48031,-5.44252 8.73071,-8.42835 4.95118,-4.61103 7.86141,-6.87874 8.73071,-6.80315 0.49133,0.0756 0.68031,0.37795 0.64251,0.90709 -0.0378,0.45354 -0.7559,1.28503 -2.11653,2.45669 -2.53228,2.15433 -6.34961,5.66929 -11.45197,10.54488 -6.23622,6.00945 -9.41103,9.44882 -9.48662,10.28032 -0.0378,0.37795 0.18898,0.56693 0.68032,0.64252 0.49134,0.0756 0.71811,0.22677 0.71811,0.45354 -0.0378,0.30236 -0.41575,0.41575 -1.13386,0.34016 -1.20945,-0.11339 -1.77638,-0.68032 -1.66299,-1.66299 0.0756,-0.7937 0.68031,-1.96536 1.88976,-3.55276 -3.32598,2.91024 -5.63149,4.30866 -6.87874,4.15748 -1.20945,-0.11339 -1.70079,-0.7937 -1.5874,-2.04094 0.0756,-0.68032 0.52913,-1.77638 1.32283,-3.17481 z m 1.02048,4.11969 c 0.86929,0.0756 2.72126,-1.05827 5.5559,-3.40158 2.83465,-2.34331 4.27087,-3.93071 4.38426,-4.8 0.0378,-0.45354 -0.15119,-0.68031 -0.56693,-0.71811 -1.05827,-0.11338 -2.94804,0.98268 -5.5937,3.2504 -2.68347,2.30551 -4.08189,4.0063 -4.19528,5.14015 -0.0378,0.30237 0.11339,0.49134 0.41575,0.52914 z m 15.42047,-0.94488 c -0.7559,0.15118 -2.26772,0.7559 -4.42205,1.85196 -1.92756,0.94489 -3.40157,1.36063 -4.34645,1.32284 -0.18898,0 -0.26457,-0.11339 -0.26457,-0.34016 0,-0.26457 0.22677,-0.41575 0.64252,-0.45354 0.90709,-0.0756 2.26772,-0.56693 4.04409,-1.43622 1.92756,-0.98268 3.47717,-1.54961 4.68662,-1.73859 0.7937,-1.66299 2.3811,-3.32598 4.68661,-5.02677 2.49449,-1.85197 4.53544,-2.72126 6.19843,-2.64567 1.20945,0.11339 1.77638,0.64252 1.73858,1.70079 -0.11338,1.36063 -1.47401,2.75906 -4.19527,4.19528 -1.96536,1.05826 -3.96851,1.85197 -5.97166,2.3811 -0.26456,0.49134 -0.41575,0.98268 -0.45354,1.51181 -0.0378,0.8315 0.18898,1.36063 0.7559,1.6252 0.26457,0.11338 0.75591,0.22677 1.54961,0.30236 0.52913,0.0756 0.7937,0.22677 0.7937,0.45354 -0.0378,0.37796 -0.98268,0.52914 -2.87244,0.37796 -1.96535,-0.11339 -2.91024,-1.05827 -2.79685,-2.75906 0,-0.41575 0.11339,-0.8315 0.22677,-1.32283 z m 3.09921,-1.05827 c 1.47402,-0.60473 3.02363,-1.43622 4.64882,-2.49449 2.19213,-1.43622 3.28819,-2.57008 3.36378,-3.47717 0,-0.37795 -0.15118,-0.56693 -0.45354,-0.60472 -1.02047,-0.0378 -2.4189,0.7937 -4.27087,2.49449 -1.62519,1.5874 -2.72126,2.91023 -3.28819,4.08189 z m 41.72599,-17.68819 c -4.8,2.87244 -7.67244,4.34645 -8.57952,4.38425 -0.34016,0 -0.52914,-0.18898 -0.56693,-0.60473 0,-0.22677 0.34015,-0.45354 1.05826,-0.68031 0.8315,-0.30236 2.11654,-0.90709 3.89292,-1.92756 l 4.53543,-2.91024 c 2.49449,-1.5874 3.77953,-2.41889 3.89291,-2.41889 0.79371,-0.0378 1.17166,0.22677 1.20945,0.7559 0,0.56693 -0.64252,1.54961 -2.00315,2.94803 -4.87559,5.10237 -11.1496,12.73701 -18.82205,22.86615 -0.26456,0.37795 -0.49133,0.52913 -0.68031,0.52913 -0.22677,0.0378 -0.49134,-0.11338 -0.71811,-0.41575 -0.22677,-0.30236 -0.37795,-0.56693 -0.37795,-0.83149 -0.0378,-0.8315 2.72126,-4.57323 8.23937,-11.2252 z m 18.06615,6.61417 c -2.4567,2.00315 -4.68662,3.09921 -6.80315,3.32599 -1.09607,0.11338 -2.00315,-0.15119 -2.75906,-0.79371 -0.71811,-0.64252 -1.13386,-1.5496 -1.28504,-2.64567 -0.26456,-2.64566 1.24725,-5.63149 4.61103,-8.95748 3.2126,-3.2126 6.16063,-4.95118 8.88189,-5.25354 1.05826,-0.11339 2.00315,0.15118 2.83464,0.7937 0.7937,0.64252 1.28504,1.47402 1.39843,2.53228 0.34016,2.94804 -1.20945,6.95434 -4.57323,12.0189 -2.94803,4.34646 -5.85827,7.71024 -8.76851,9.97796 -2.91023,2.30551 -4.8,3.51496 -5.70708,3.59055 -0.41575,0.0378 -0.60473,-0.11339 -0.68032,-0.52914 0,-0.22677 0.49134,-0.68031 1.51181,-1.32283 1.54961,-0.94488 3.36378,-2.53228 5.40473,-4.76221 1.81417,-1.96535 3.32598,-3.85511 4.57323,-5.66929 0.45354,-0.64252 0.90708,-1.43622 1.36063,-2.30551 z m -8.91969,0.71811 c 0.11339,1.09606 0.75591,1.54961 1.88977,1.43622 2.04094,-0.22677 4.11968,-1.20945 6.23622,-2.91023 2.00315,-1.6252 3.47716,-3.40158 4.42204,-5.36693 1.17166,-2.38111 1.663,-4.23308 1.54961,-5.51812 -0.11339,-0.90708 -0.64252,-1.32283 -1.5874,-1.20944 -1.6252,0.15118 -4.19528,1.85196 -7.67244,5.02677 -3.51496,3.2126 -5.14016,6.04724 -4.8378,8.54173 z m 25.54961,-6.16063 c 1.36063,1.96535 2.22992,3.77953 2.57008,5.51811 0.52913,2.53228 -0.0378,4.95118 -1.6252,7.2189 -1.5874,2.26772 -3.70393,3.66614 -6.27401,4.19528 -1.39843,0.26456 -2.68347,-0.0378 -3.81733,-0.94489 -1.05826,-0.83149 -1.77638,-1.96535 -2.04094,-3.40157 -0.86929,-4.38425 2.04094,-8.99528 8.7685,-13.75748 -0.22677,-0.49134 -0.37795,-0.94489 -0.49134,-1.43622 -0.45354,-2.4189 0.26457,-4.61103 2.26772,-6.57638 1.73858,-1.77638 3.89291,-2.91024 6.4252,-3.40158 1.02047,-0.18897 1.96535,-0.22677 2.79685,-0.0756 1.17165,0.22677 1.81417,0.75591 2.00315,1.5874 0.0378,0.30237 -0.0756,0.75591 -0.34016,1.36063 0.18898,-0.11338 0.37795,-0.18897 0.49134,-0.22677 0.30236,-0.0756 0.45354,0.0756 0.52913,0.37795 0.0378,0.30237 0,0.68032 -0.15118,1.17166 -0.18897,0.45354 -0.60472,0.90708 -1.20945,1.32283 -3.85511,2.57008 -7.1433,4.95118 -9.90236,7.06772 z m 9.22205,-9.22205 c -0.41575,-1.28504 -1.85197,-1.66299 -4.30866,-1.17165 -1.92756,0.37795 -3.51496,1.17165 -4.76221,2.4189 -1.47401,1.43622 -2.00315,3.06141 -1.6252,4.87559 0.0378,0.34015 0.15119,0.68031 0.34016,1.02047 3.77953,-2.75906 7.2567,-5.14016 10.35591,-7.14331 z m -10.69607,10.28032 c -6.08504,4.91338 -8.8063,9.03307 -8.16378,12.28346 0.15119,0.75591 0.52914,1.28504 1.17166,1.6252 0.64252,0.34016 1.32283,0.41575 2.07874,0.26457 2.07874,-0.41575 3.81732,-1.6252 5.21575,-3.66614 1.39842,-2.00315 1.88976,-4.0441 1.47401,-6.12284 -0.30236,-1.51181 -0.90708,-2.98583 -1.77638,-4.38425 z m 21.84568,-6.68977 c 1.51181,1.81418 2.49449,3.59056 2.98582,5.29134 0.68032,2.49449 0.30237,4.95118 -1.13385,7.33229 -1.43623,2.3811 -3.43938,3.93071 -5.97166,4.61102 -1.39842,0.37795 -2.68346,0.15118 -3.89291,-0.68031 -1.13386,-0.75591 -1.88977,-1.85197 -2.26772,-3.2504 -1.17165,-4.30866 1.43622,-9.10866 7.78583,-14.3622 -0.26457,-0.45355 -0.45355,-0.90709 -0.56693,-1.36063 -0.64252,-2.38111 -0.0756,-4.64882 1.77638,-6.72756 1.62519,-1.88977 3.70393,-3.17481 6.19842,-3.85512 0.98268,-0.26457 1.92756,-0.34016 2.79685,-0.22677 1.17166,0.11338 1.85197,0.60472 2.07874,1.43622 0.0756,0.26456 0,0.71811 -0.22677,1.36063 0.15118,-0.15118 0.34016,-0.22678 0.49134,-0.26457 0.26457,-0.0756 0.41575,0.0378 0.49134,0.34016 0.11339,0.30236 0.0756,0.68031 -0.0378,1.17165 -0.15118,0.45354 -0.52913,0.94488 -1.13385,1.39843 -3.62835,2.87244 -6.76536,5.44252 -9.37323,7.78582 z m 8.57953,-9.86456 c -0.49134,-1.24725 -1.96536,-1.54961 -4.38426,-0.8693 -1.88976,0.49134 -3.43937,1.43622 -4.61102,2.75906 -1.36063,1.51181 -1.77638,3.1748 -1.28504,4.98898 0.11338,0.30236 0.22677,0.64252 0.41575,0.94488 3.59055,-3.02362 6.87874,-5.6315 9.86457,-7.82362 z m -9.94016,10.99842 c -5.74489,5.32914 -8.16378,9.6 -7.29449,12.8126 0.18897,0.75591 0.60472,1.28504 1.28504,1.54961 0.64252,0.30236 1.32283,0.34016 2.07874,0.11338 2.04094,-0.52913 3.70393,-1.88976 4.95118,-4.0063 1.24724,-2.11653 1.5874,-4.19527 1.02047,-6.23622 -0.37795,-1.47401 -1.09606,-2.91023 -2.04094,-4.23307 z"
         id="path246"
         inkscape:connector-curvature="0"
         style="clip-rule:evenodd;fill:#0098da;fill-rule:nonzero;stroke-width:0.03779528;image-rendering:optimizeQuality;shape-rendering:geometricPrecision;text-rendering:geometricPrecision" />
      <polygon
         class="fil0"
         points="15863,14919 15863,15168 5636,15168 5636,14919 "
         id="polygon248"
         style="clip-rule:evenodd;fill:#0098da;fill-rule:evenodd;image-rendering:optimizeQuality;shape-rendering:geometricPrecision;text-rendering:geometricPrecision"
         transform="matrix(0.03779528,0,0,0.03779528,-94.851797,-58.608824)" />
      <polygon
         class="fil0"
         points="15864,14668 15864,14793 5635,14793 5635,14668 "
         id="polygon250"
         style="clip-rule:evenodd;fill:#0098da;fill-rule:evenodd;image-rendering:optimizeQuality;shape-rendering:geometricPrecision;text-rendering:geometricPrecision"
         transform="matrix(0.03779528,0,0,0.03779528,-94.851797,-58.608824)" />
    </g>
  </g>
</svg>
